<svg width="227" height="34" viewBox="0 0 227 34" fill="none" xmlns="http://www.w3.org/2000/svg">
<mask id="path-1-outside-1_4052_13121" maskUnits="userSpaceOnUse" x="-0.453125" y="-0.3125" width="227" height="34" fill="black">
<rect fill="white" x="-0.453125" y="-0.3125" width="227" height="34"/>
<path d="M17.2726 28.6875H4.18096V5.90625H15.9968C18.1838 5.90625 19.7431 6.3315 20.6746 7.182C21.6061 8.0325 22.0718 9.26775 22.0718 10.8877C22.0718 12.528 21.7782 13.7936 21.191 14.6846C20.6037 15.5554 19.8038 16.1325 18.7913 16.416V16.6286C21.7276 17.1349 23.1957 19.1396 23.1957 22.6429C23.1957 24.4654 22.7097 25.9335 21.7377 27.0472C20.786 28.1407 19.2976 28.6875 17.2726 28.6875ZM14.3262 19.6054H11.471V23.3415H14.2655C15.2982 23.3415 15.8146 22.7137 15.8146 21.4582C15.8146 20.223 15.3185 19.6054 14.3262 19.6054ZM13.7795 10.8877H11.471V14.2897H13.7187C14.6502 14.2897 15.116 13.7227 15.116 12.5887C15.116 11.4547 14.6705 10.8877 13.7795 10.8877ZM25.746 28.6875V10.4625H29.391L31.3958 12.4976C32.8538 11.1611 34.656 10.3005 36.8025 9.91575L37.2278 16.8109C36.9443 16.8109 36.6 16.8514 36.195 16.9324C35.79 17.0134 35.3749 17.1146 34.9496 17.2361C34.5446 17.3576 34.17 17.5095 33.8258 17.6917C33.4815 17.8537 33.2183 18.0461 33.036 18.2689V28.6875H25.746ZM48.0472 9.91575C53.8792 9.91575 56.7952 11.9205 56.7952 15.93V28.6875H53.1502L51.0847 26.622C50.7202 27.027 50.2848 27.3915 49.7786 27.7155C49.2926 28.0395 48.7661 28.3129 48.1991 28.5356C47.6321 28.7584 47.055 28.9305 46.4677 29.052C45.8805 29.1735 45.3135 29.2343 44.7667 29.2343C43.734 29.2343 42.8025 29.1229 41.9722 28.9001C41.1622 28.6976 40.4737 28.3635 39.9067 27.8977C39.3397 27.432 38.9043 26.8144 38.6006 26.0449C38.2968 25.2754 38.145 24.3337 38.145 23.22C38.145 18.846 41.4457 16.659 48.0472 16.659H49.5052V15.3529C49.1205 15.3326 48.7661 15.3124 48.4421 15.2921C48.1383 15.2719 47.8548 15.2617 47.5916 15.2617C44.8578 15.2617 42.4987 15.5959 40.5142 16.2641L39.6333 11.0396C42.0633 10.2904 44.868 9.91575 48.0472 9.91575ZM45.4957 22.4302V23.9186H47.0145C48.0675 23.9186 48.756 23.7971 49.08 23.5541C49.3635 23.2909 49.5052 22.977 49.5052 22.6125V20.8811H48.0168C47.1461 20.8811 46.5082 20.9722 46.1032 21.1545C45.6982 21.3367 45.4957 21.762 45.4957 22.4302ZM72.6415 28.6875H62.8L58.2437 10.4625H65.5337L67.5385 22.3087H67.903L69.9077 10.4625H77.1977L72.6415 28.6875ZM86.1287 22.491V23.7667C86.4932 23.8072 86.8577 23.8376 87.2222 23.8579C87.5867 23.8781 87.9512 23.8882 88.3157 23.8882C90.5837 23.8882 92.8719 23.5237 95.1804 22.7947L96.0309 28.1407C93.2972 28.8698 90.6039 29.2343 87.9512 29.2343C84.5492 29.2343 82.0888 28.4445 80.5701 26.865C79.0513 25.2652 78.2919 22.8352 78.2919 19.575C78.2919 16.3147 79.0513 13.8949 80.5701 12.3154C82.1091 10.7156 84.5694 9.91575 87.9512 9.91575C89.6522 9.91575 91.0697 10.0271 92.2037 10.2499C93.3377 10.4524 94.2489 10.8067 94.9374 11.313C95.6462 11.799 96.1423 12.4672 96.4258 13.3177C96.7296 14.148 96.8814 15.201 96.8814 16.4767C96.8814 17.5297 96.6992 18.441 96.3347 19.2105C95.9904 19.9597 95.4032 20.5774 94.5729 21.0634C93.7427 21.5494 92.6391 21.9139 91.2621 22.1569C89.8851 22.3796 88.1739 22.491 86.1287 22.491ZM86.1287 16.7805V18.2689H87.6171C88.5081 18.2689 89.1459 18.1777 89.5307 17.9955C89.9357 17.8132 90.1382 17.388 90.1382 16.7197V15.2314H88.6498C87.7588 15.2314 87.1108 15.3225 86.7058 15.5047C86.3211 15.687 86.1287 16.1122 86.1287 16.7805ZM128.761 28.6875H121.471V20.6381H116.004V28.6875H108.714V5.90625H116.004V13.9556H121.471V5.90625H128.761V28.6875ZM141.041 9.91575C146.873 9.91575 149.789 11.9205 149.789 15.93V28.6875H146.144L144.078 26.622C143.714 27.027 143.279 27.3915 142.772 27.7155C142.286 28.0395 141.76 28.3129 141.193 28.5356C140.626 28.7584 140.049 28.9305 139.461 29.052C138.874 29.1735 138.307 29.2343 137.76 29.2343C136.728 29.2343 135.796 29.1229 134.966 28.9001C134.156 28.6976 133.467 28.3635 132.9 27.8977C132.333 27.432 131.898 26.8144 131.594 26.0449C131.291 25.2754 131.139 24.3337 131.139 23.22C131.139 18.846 134.439 16.659 141.041 16.659H142.499V15.3529C142.114 15.3326 141.76 15.3124 141.436 15.2921C141.132 15.2719 140.849 15.2617 140.585 15.2617C137.852 15.2617 135.492 15.5959 133.508 16.2641L132.627 11.0396C135.057 10.2904 137.862 9.91575 141.041 9.91575ZM138.489 22.4302V23.9186H140.008C141.061 23.9186 141.75 23.7971 142.074 23.5541C142.357 23.2909 142.499 22.977 142.499 22.6125V20.8811H141.011C140.14 20.8811 139.502 20.9722 139.097 21.1545C138.692 21.3367 138.489 21.762 138.489 22.4302ZM166.425 23.22L166.881 28.4749C165.625 28.9811 163.995 29.2343 161.99 29.2343C158.588 29.2343 156.128 28.4445 154.609 26.865C153.09 25.2652 152.331 22.8352 152.331 19.575C152.331 16.3147 153.09 13.8949 154.609 12.3154C156.128 10.7156 158.588 9.91575 161.99 9.91575C164.157 9.91575 165.787 10.1689 166.881 10.6751L166 15.6262C165.352 15.5047 164.775 15.4136 164.268 15.3529C163.762 15.2719 163.317 15.2314 162.932 15.2314C161.089 15.2314 160.168 15.8794 160.168 17.1754V23.706C160.512 23.7667 160.907 23.8174 161.352 23.8579C161.818 23.8984 162.334 23.9186 162.901 23.9186C164.035 23.9186 165.21 23.6857 166.425 23.22ZM188.015 28.6875H180.148L177.323 21.4582H177.08V28.6875H169.79V4.995L177.08 4.44825V16.4767H177.323L179.966 10.4625H187.833L183.611 19.1497L188.015 28.6875ZM197.306 22.491V23.7667C197.67 23.8072 198.035 23.8376 198.399 23.8579C198.764 23.8781 199.128 23.8882 199.493 23.8882C201.761 23.8882 204.049 23.5237 206.358 22.7947L207.208 28.1407C204.474 28.8698 201.781 29.2343 199.128 29.2343C195.726 29.2343 193.266 28.4445 191.747 26.865C190.229 25.2652 189.469 22.8352 189.469 19.575C189.469 16.3147 190.229 13.8949 191.747 12.3154C193.286 10.7156 195.747 9.91575 199.128 9.91575C200.829 9.91575 202.247 10.0271 203.381 10.2499C204.515 10.4524 205.426 10.8067 206.115 11.313C206.823 11.799 207.32 12.4672 207.603 13.3177C207.907 14.148 208.059 15.201 208.059 16.4767C208.059 17.5297 207.876 18.441 207.512 19.2105C207.168 19.9597 206.58 20.5774 205.75 21.0634C204.92 21.5494 203.816 21.9139 202.439 22.1569C201.062 22.3796 199.351 22.491 197.306 22.491ZM197.306 16.7805V18.2689H198.794C199.685 18.2689 200.323 18.1777 200.708 17.9955C201.113 17.8132 201.315 17.388 201.315 16.7197V15.2314H199.827C198.936 15.2314 198.288 15.3225 197.883 15.5047C197.498 15.687 197.306 16.1122 197.306 16.7805ZM210.784 28.6875V10.4625H214.429L216.434 12.4976C217.892 11.1611 219.694 10.3005 221.841 9.91575L222.266 16.8109C221.983 16.8109 221.638 16.8514 221.233 16.9324C220.828 17.0134 220.413 17.1146 219.988 17.2361C219.583 17.3576 219.208 17.5095 218.864 17.6917C218.52 17.8537 218.257 18.0461 218.074 18.2689V28.6875H210.784Z"/>
</mask>
<path d="M17.2726 28.6875H4.18096V5.90625H15.9968C18.1838 5.90625 19.7431 6.3315 20.6746 7.182C21.6061 8.0325 22.0718 9.26775 22.0718 10.8877C22.0718 12.528 21.7782 13.7936 21.191 14.6846C20.6037 15.5554 19.8038 16.1325 18.7913 16.416V16.6286C21.7276 17.1349 23.1957 19.1396 23.1957 22.6429C23.1957 24.4654 22.7097 25.9335 21.7377 27.0472C20.786 28.1407 19.2976 28.6875 17.2726 28.6875ZM14.3262 19.6054H11.471V23.3415H14.2655C15.2982 23.3415 15.8146 22.7137 15.8146 21.4582C15.8146 20.223 15.3185 19.6054 14.3262 19.6054ZM13.7795 10.8877H11.471V14.2897H13.7187C14.6502 14.2897 15.116 13.7227 15.116 12.5887C15.116 11.4547 14.6705 10.8877 13.7795 10.8877ZM25.746 28.6875V10.4625H29.391L31.3958 12.4976C32.8538 11.1611 34.656 10.3005 36.8025 9.91575L37.2278 16.8109C36.9443 16.8109 36.6 16.8514 36.195 16.9324C35.79 17.0134 35.3749 17.1146 34.9496 17.2361C34.5446 17.3576 34.17 17.5095 33.8258 17.6917C33.4815 17.8537 33.2183 18.0461 33.036 18.2689V28.6875H25.746ZM48.0472 9.91575C53.8792 9.91575 56.7952 11.9205 56.7952 15.93V28.6875H53.1502L51.0847 26.622C50.7202 27.027 50.2848 27.3915 49.7786 27.7155C49.2926 28.0395 48.7661 28.3129 48.1991 28.5356C47.6321 28.7584 47.055 28.9305 46.4677 29.052C45.8805 29.1735 45.3135 29.2343 44.7667 29.2343C43.734 29.2343 42.8025 29.1229 41.9722 28.9001C41.1622 28.6976 40.4737 28.3635 39.9067 27.8977C39.3397 27.432 38.9043 26.8144 38.6006 26.0449C38.2968 25.2754 38.145 24.3337 38.145 23.22C38.145 18.846 41.4457 16.659 48.0472 16.659H49.5052V15.3529C49.1205 15.3326 48.7661 15.3124 48.4421 15.2921C48.1383 15.2719 47.8548 15.2617 47.5916 15.2617C44.8578 15.2617 42.4987 15.5959 40.5142 16.2641L39.6333 11.0396C42.0633 10.2904 44.868 9.91575 48.0472 9.91575ZM45.4957 22.4302V23.9186H47.0145C48.0675 23.9186 48.756 23.7971 49.08 23.5541C49.3635 23.2909 49.5052 22.977 49.5052 22.6125V20.8811H48.0168C47.1461 20.8811 46.5082 20.9722 46.1032 21.1545C45.6982 21.3367 45.4957 21.762 45.4957 22.4302ZM72.6415 28.6875H62.8L58.2437 10.4625H65.5337L67.5385 22.3087H67.903L69.9077 10.4625H77.1977L72.6415 28.6875ZM86.1287 22.491V23.7667C86.4932 23.8072 86.8577 23.8376 87.2222 23.8579C87.5867 23.8781 87.9512 23.8882 88.3157 23.8882C90.5837 23.8882 92.8719 23.5237 95.1804 22.7947L96.0309 28.1407C93.2972 28.8698 90.6039 29.2343 87.9512 29.2343C84.5492 29.2343 82.0888 28.4445 80.5701 26.865C79.0513 25.2652 78.2919 22.8352 78.2919 19.575C78.2919 16.3147 79.0513 13.8949 80.5701 12.3154C82.1091 10.7156 84.5694 9.91575 87.9512 9.91575C89.6522 9.91575 91.0697 10.0271 92.2037 10.2499C93.3377 10.4524 94.2489 10.8067 94.9374 11.313C95.6462 11.799 96.1423 12.4672 96.4258 13.3177C96.7296 14.148 96.8814 15.201 96.8814 16.4767C96.8814 17.5297 96.6992 18.441 96.3347 19.2105C95.9904 19.9597 95.4032 20.5774 94.5729 21.0634C93.7427 21.5494 92.6391 21.9139 91.2621 22.1569C89.8851 22.3796 88.1739 22.491 86.1287 22.491ZM86.1287 16.7805V18.2689H87.6171C88.5081 18.2689 89.1459 18.1777 89.5307 17.9955C89.9357 17.8132 90.1382 17.388 90.1382 16.7197V15.2314H88.6498C87.7588 15.2314 87.1108 15.3225 86.7058 15.5047C86.3211 15.687 86.1287 16.1122 86.1287 16.7805ZM128.761 28.6875H121.471V20.6381H116.004V28.6875H108.714V5.90625H116.004V13.9556H121.471V5.90625H128.761V28.6875ZM141.041 9.91575C146.873 9.91575 149.789 11.9205 149.789 15.93V28.6875H146.144L144.078 26.622C143.714 27.027 143.279 27.3915 142.772 27.7155C142.286 28.0395 141.76 28.3129 141.193 28.5356C140.626 28.7584 140.049 28.9305 139.461 29.052C138.874 29.1735 138.307 29.2343 137.76 29.2343C136.728 29.2343 135.796 29.1229 134.966 28.9001C134.156 28.6976 133.467 28.3635 132.9 27.8977C132.333 27.432 131.898 26.8144 131.594 26.0449C131.291 25.2754 131.139 24.3337 131.139 23.22C131.139 18.846 134.439 16.659 141.041 16.659H142.499V15.3529C142.114 15.3326 141.76 15.3124 141.436 15.2921C141.132 15.2719 140.849 15.2617 140.585 15.2617C137.852 15.2617 135.492 15.5959 133.508 16.2641L132.627 11.0396C135.057 10.2904 137.862 9.91575 141.041 9.91575ZM138.489 22.4302V23.9186H140.008C141.061 23.9186 141.75 23.7971 142.074 23.5541C142.357 23.2909 142.499 22.977 142.499 22.6125V20.8811H141.011C140.14 20.8811 139.502 20.9722 139.097 21.1545C138.692 21.3367 138.489 21.762 138.489 22.4302ZM166.425 23.22L166.881 28.4749C165.625 28.9811 163.995 29.2343 161.99 29.2343C158.588 29.2343 156.128 28.4445 154.609 26.865C153.09 25.2652 152.331 22.8352 152.331 19.575C152.331 16.3147 153.09 13.8949 154.609 12.3154C156.128 10.7156 158.588 9.91575 161.99 9.91575C164.157 9.91575 165.787 10.1689 166.881 10.6751L166 15.6262C165.352 15.5047 164.775 15.4136 164.268 15.3529C163.762 15.2719 163.317 15.2314 162.932 15.2314C161.089 15.2314 160.168 15.8794 160.168 17.1754V23.706C160.512 23.7667 160.907 23.8174 161.352 23.8579C161.818 23.8984 162.334 23.9186 162.901 23.9186C164.035 23.9186 165.21 23.6857 166.425 23.22ZM188.015 28.6875H180.148L177.323 21.4582H177.08V28.6875H169.79V4.995L177.08 4.44825V16.4767H177.323L179.966 10.4625H187.833L183.611 19.1497L188.015 28.6875ZM197.306 22.491V23.7667C197.67 23.8072 198.035 23.8376 198.399 23.8579C198.764 23.8781 199.128 23.8882 199.493 23.8882C201.761 23.8882 204.049 23.5237 206.358 22.7947L207.208 28.1407C204.474 28.8698 201.781 29.2343 199.128 29.2343C195.726 29.2343 193.266 28.4445 191.747 26.865C190.229 25.2652 189.469 22.8352 189.469 19.575C189.469 16.3147 190.229 13.8949 191.747 12.3154C193.286 10.7156 195.747 9.91575 199.128 9.91575C200.829 9.91575 202.247 10.0271 203.381 10.2499C204.515 10.4524 205.426 10.8067 206.115 11.313C206.823 11.799 207.32 12.4672 207.603 13.3177C207.907 14.148 208.059 15.201 208.059 16.4767C208.059 17.5297 207.876 18.441 207.512 19.2105C207.168 19.9597 206.58 20.5774 205.75 21.0634C204.92 21.5494 203.816 21.9139 202.439 22.1569C201.062 22.3796 199.351 22.491 197.306 22.491ZM197.306 16.7805V18.2689H198.794C199.685 18.2689 200.323 18.1777 200.708 17.9955C201.113 17.8132 201.315 17.388 201.315 16.7197V15.2314H199.827C198.936 15.2314 198.288 15.3225 197.883 15.5047C197.498 15.687 197.306 16.1122 197.306 16.7805ZM210.784 28.6875V10.4625H214.429L216.434 12.4976C217.892 11.1611 219.694 10.3005 221.841 9.91575L222.266 16.8109C221.983 16.8109 221.638 16.8514 221.233 16.9324C220.828 17.0134 220.413 17.1146 219.988 17.2361C219.583 17.3576 219.208 17.5095 218.864 17.6917C218.52 17.8537 218.257 18.0461 218.074 18.2689V28.6875H210.784Z" fill="#FF3044"/>
<path d="M4.18096 28.6875H0.13096C0.13096 30.9243 1.94421 32.7375 4.18096 32.7375V28.6875ZM4.18096 5.90625V1.85625C1.94421 1.85625 0.13096 3.66949 0.13096 5.90625H4.18096ZM20.6746 7.182L17.9438 10.1729V10.1729L20.6746 7.182ZM21.191 14.6846L24.5487 16.9491C24.5567 16.9373 24.5647 16.9254 24.5725 16.9134L21.191 14.6846ZM18.7913 16.416L17.6993 12.516C15.9504 13.0057 14.7413 14.5998 14.7413 16.416H18.7913ZM18.7913 16.6286H14.7413C14.7413 18.5999 16.1606 20.2848 18.1032 20.6197L18.7913 16.6286ZM21.7377 27.0473L18.6863 24.3842L18.6828 24.3883L21.7377 27.0473ZM11.471 19.6054V15.5554C9.23421 15.5554 7.42096 17.3686 7.42096 19.6054H11.471ZM11.471 23.3415H7.42096C7.42096 25.5783 9.23421 27.3915 11.471 27.3915V23.3415ZM11.471 10.8877V6.83775C9.23421 6.83775 7.42096 8.651 7.42096 10.8877H11.471ZM11.471 14.2897H7.42096C7.42096 16.5265 9.23421 18.3397 11.471 18.3397V14.2897ZM17.2726 24.6375H4.18096V32.7375H17.2726V24.6375ZM8.23096 28.6875V5.90625H0.13096V28.6875H8.23096ZM4.18096 9.95625H15.9968V1.85625H4.18096V9.95625ZM15.9968 9.95625C16.8481 9.95625 17.4063 10.0412 17.7409 10.1325C18.0699 10.2222 18.0671 10.2854 17.9438 10.1729L23.4054 4.19113C21.344 2.30901 18.5143 1.85625 15.9968 1.85625V9.95625ZM17.9438 10.1729C17.9164 10.1479 17.9143 10.1257 17.9329 10.1752C17.9595 10.2455 18.0218 10.4586 18.0218 10.8877H26.1218C26.1218 8.47338 25.4014 6.01355 23.4054 4.19113L17.9438 10.1729ZM18.0218 10.8877C18.0218 11.4762 17.9682 11.8854 17.9064 12.1519C17.8452 12.4155 17.7883 12.4879 17.8094 12.4559L24.5725 16.9134C25.7716 15.0941 26.1218 12.9253 26.1218 10.8877H18.0218ZM17.8332 12.4201C17.8092 12.4557 17.7928 12.474 17.7862 12.4809C17.7799 12.4874 17.7784 12.488 17.7809 12.4862C17.7833 12.4844 17.7822 12.4858 17.7736 12.4898C17.7646 12.4941 17.7415 12.5042 17.6993 12.516L19.8833 20.316C21.8201 19.7737 23.4235 18.6176 24.5487 16.9491L17.8332 12.4201ZM14.7413 16.416V16.6286H22.8413V16.416H14.7413ZM18.1032 20.6197C18.4534 20.6801 18.635 20.7635 18.7124 20.8077C18.7781 20.8452 18.8037 20.8728 18.8271 20.9048C18.8822 20.98 19.1457 21.4095 19.1457 22.6429H27.2457C27.2457 20.373 26.7752 18.0485 25.3621 16.119C23.8878 14.1057 21.7627 13.0312 19.4795 12.6375L18.1032 20.6197ZM19.1457 22.6429C19.1457 23.7233 18.874 24.1692 18.6863 24.3842L24.7891 29.7103C26.5454 27.6978 27.2457 25.2074 27.2457 22.6429H19.1457ZM18.6828 24.3883C18.6814 24.3899 18.6783 24.394 18.6639 24.4037C18.648 24.4143 18.6027 24.4422 18.5111 24.4758C18.3188 24.5465 17.9345 24.6375 17.2726 24.6375V32.7375C19.9862 32.7375 22.8031 31.9921 24.7926 29.7062L18.6828 24.3883ZM14.3262 15.5554H11.471V23.6554H14.3262V15.5554ZM7.42096 19.6054V23.3415H15.521V19.6054H7.42096ZM11.471 27.3915H14.2655V19.2915H11.471V27.3915ZM14.2655 27.3915C15.6373 27.3915 17.3271 26.9363 18.5551 25.4435C19.6585 24.1022 19.8646 22.5389 19.8646 21.4583H11.7646C11.7646 21.6331 11.7125 21.0115 12.2995 20.2978C13.0111 19.4328 13.9263 19.2915 14.2655 19.2915V27.3915ZM19.8646 21.4583C19.8646 20.405 19.6706 18.8651 18.6 17.5323C17.3932 16.03 15.7105 15.5554 14.3262 15.5554V23.6554C14.1612 23.6554 13.8308 23.6302 13.4251 23.4619C12.9947 23.2833 12.5941 22.9896 12.285 22.6049C11.7105 21.8897 11.7646 21.2762 11.7646 21.4583H19.8646ZM13.7795 6.83775H11.471V14.9377H13.7795V6.83775ZM7.42096 10.8877V14.2897H15.521V10.8877H7.42096ZM11.471 18.3397H13.7187V10.2397H11.471V18.3397ZM13.7187 18.3397C15.0419 18.3397 16.6942 17.8985 17.8962 16.4352C18.9729 15.1244 19.166 13.6076 19.166 12.5887H11.066C11.066 12.7039 11.0261 12.0376 11.6371 11.2938C12.3734 10.3975 13.3271 10.2397 13.7187 10.2397V18.3397ZM19.166 12.5887C19.166 11.6016 18.9907 10.1144 17.9664 8.81082C16.7961 7.32127 15.1444 6.83775 13.7795 6.83775V14.9377C13.579 14.9377 13.2156 14.9062 12.7825 14.7224C12.3247 14.5282 11.9111 14.2146 11.5972 13.8152C11.0185 13.0786 11.066 12.4419 11.066 12.5887H19.166ZM25.746 28.6875H21.696C21.696 30.9243 23.5093 32.7375 25.746 32.7375V28.6875ZM25.746 10.4625V6.4125C23.5093 6.4125 21.696 8.22575 21.696 10.4625H25.746ZM29.391 10.4625L32.2763 7.62033C31.5151 6.8476 30.4757 6.4125 29.391 6.4125V10.4625ZM31.3958 12.4976L28.5105 15.3398C30.0405 16.8929 32.5254 16.9563 34.1325 15.4831L31.3958 12.4976ZM36.8025 9.91575L40.8448 9.66644C40.7737 8.51303 40.2132 7.44494 39.3045 6.73103C38.3958 6.01713 37.2254 5.7254 36.088 5.92928L36.8025 9.91575ZM37.2278 16.8109V20.8609C38.3452 20.8609 39.413 20.3992 40.1784 19.5851C40.9438 18.771 41.3389 17.6769 41.2701 16.5616L37.2278 16.8109ZM34.9496 17.2361L33.837 13.342C33.8199 13.3468 33.8029 13.3518 33.7859 13.3569L34.9496 17.2361ZM33.8258 17.6917L35.5503 21.3563C35.6077 21.3292 35.6646 21.3008 35.7207 21.2711L33.8258 17.6917ZM33.036 18.2689L29.9015 15.7043C29.3095 16.4278 28.986 17.334 28.986 18.2689H33.036ZM33.036 28.6875V32.7375C35.2728 32.7375 37.086 30.9243 37.086 28.6875H33.036ZM29.796 28.6875V10.4625H21.696V28.6875H29.796ZM25.746 14.5125H29.391V6.4125H25.746V14.5125ZM26.5058 13.3047L28.5105 15.3398L34.281 9.65545L32.2763 7.62033L26.5058 13.3047ZM34.1325 15.4831C34.9676 14.7175 36.0456 14.166 37.5171 13.9022L36.088 5.92928C33.2664 6.43503 30.7399 7.60474 28.6591 9.51215L34.1325 15.4831ZM32.7602 10.1651L33.1855 17.0602L41.2701 16.5616L40.8448 9.66644L32.7602 10.1651ZM37.2278 12.7609C36.587 12.7609 35.9602 12.8491 35.4008 12.961L36.9893 20.9037C37.1049 20.8806 37.1837 20.869 37.2302 20.8635C37.2784 20.8578 37.2743 20.8609 37.2278 20.8609V12.7609ZM35.4008 12.961C34.8814 13.0649 34.36 13.1925 33.837 13.342L36.0623 21.1303C36.3898 21.0367 36.6986 20.9619 36.9893 20.9037L35.4008 12.961ZM33.7859 13.3569C33.1493 13.5479 32.5273 13.7966 31.9308 14.1124L35.7207 21.2711C35.8127 21.2224 35.94 21.1673 36.1134 21.1153L33.7859 13.3569ZM32.1013 14.0272C31.379 14.3671 30.5683 14.8893 29.9015 15.7043L36.1705 20.8335C35.8682 21.203 35.5841 21.3404 35.5503 21.3563L32.1013 14.0272ZM28.986 18.2689V28.6875H37.086V18.2689H28.986ZM33.036 24.6375H25.746V32.7375H33.036V24.6375ZM56.7952 28.6875V32.7375C59.032 32.7375 60.8452 30.9243 60.8452 28.6875H56.7952ZM53.1502 28.6875L50.2864 31.5513C51.0459 32.3108 52.0761 32.7375 53.1502 32.7375V28.6875ZM51.0847 26.622L53.9485 23.7582C53.1628 22.9726 52.0889 22.5442 50.9782 22.5734C49.8675 22.6026 48.8176 23.0868 48.0744 23.9127L51.0847 26.622ZM49.7786 27.7155L47.5954 24.3043C47.5742 24.3179 47.553 24.3317 47.532 24.3457L49.7786 27.7155ZM46.4677 29.052L47.2883 33.018H47.2883L46.4677 29.052ZM41.9722 28.9001L43.0217 24.9885C42.9993 24.9825 42.9769 24.9767 42.9545 24.971L41.9722 28.9001ZM39.9067 27.8978L42.4774 24.7682V24.7682L39.9067 27.8978ZM38.6006 26.0449L42.3677 24.5578L38.6006 26.0449ZM49.5052 16.659V20.709C51.742 20.709 53.5552 18.8958 53.5552 16.659H49.5052ZM49.5052 15.3529H53.5552C53.5552 13.1988 51.8691 11.4217 49.7181 11.3085L49.5052 15.3529ZM48.4421 15.2921L48.1727 19.3332C48.1783 19.3335 48.1839 19.3339 48.1895 19.3342L48.4421 15.2921ZM40.5142 16.2641L36.5206 16.9375C36.7176 18.1063 37.4168 19.1301 38.4338 19.7389C39.4507 20.3478 40.6834 20.4806 41.8067 20.1024L40.5142 16.2641ZM39.6333 11.0396L38.44 7.16942C36.4995 7.76774 35.3021 9.71059 35.6397 11.713L39.6333 11.0396ZM45.4957 23.9186H41.4457C41.4457 26.1554 43.259 27.9686 45.4957 27.9686V23.9186ZM49.08 23.5541L51.51 26.7941C51.6233 26.7092 51.732 26.6183 51.8358 26.5219L49.08 23.5541ZM49.5052 20.8811H53.5552C53.5552 18.6444 51.742 16.8311 49.5052 16.8311V20.8811ZM46.1032 21.1545L44.4412 17.4612L44.4412 17.4612L46.1032 21.1545ZM48.0472 13.9657C50.6249 13.9657 51.8409 14.4316 52.3138 14.7567C52.4996 14.8845 52.5641 14.983 52.6042 15.0657C52.6536 15.1675 52.7452 15.4189 52.7452 15.93H60.8452C60.8452 12.7979 59.6194 9.9497 56.9026 8.08194C54.4595 6.40228 51.3016 5.86575 48.0472 5.86575V13.9657ZM52.7452 15.93V28.6875H60.8452V15.93H52.7452ZM56.7952 24.6375H53.1502V32.7375H56.7952V24.6375ZM56.014 25.8237L53.9485 23.7582L48.2209 29.4858L50.2864 31.5513L56.014 25.8237ZM48.0744 23.9127C47.9764 24.0215 47.8269 24.1562 47.5954 24.3043L51.9617 31.1267C52.7428 30.6268 53.464 30.0325 54.095 29.3313L48.0744 23.9127ZM47.532 24.3457C47.2964 24.5028 47.028 24.6444 46.7182 24.7661L49.68 32.3052C50.5042 31.9814 51.2888 31.5762 52.0251 31.0853L47.532 24.3457ZM46.7182 24.7661C46.3619 24.906 46.0056 25.0118 45.6472 25.086L47.2883 33.018C48.1043 32.8492 48.9022 32.6107 49.68 32.3052L46.7182 24.7661ZM45.6472 25.086C45.3041 25.157 45.0127 25.1842 44.7667 25.1842V33.2842C45.6142 33.2842 46.4568 33.19 47.2883 33.018L45.6472 25.086ZM44.7667 25.1842C44.0196 25.1842 43.4491 25.1031 43.0217 24.9885L40.9227 32.8118C42.1558 33.1426 43.4483 33.2842 44.7667 33.2842V25.1842ZM42.9545 24.971C42.6462 24.894 42.5206 24.8037 42.4774 24.7682L37.336 31.0273C38.4268 31.9233 39.6782 32.5013 40.9899 32.8292L42.9545 24.971ZM42.4774 24.7682C42.4834 24.7731 42.4795 24.7721 42.4651 24.7518C42.4494 24.7295 42.4125 24.6713 42.3677 24.5578L34.8335 27.5319C35.3572 28.8587 36.1722 30.0713 37.336 31.0273L42.4774 24.7682ZM42.3677 24.5578C42.3033 24.3947 42.195 23.9903 42.195 23.22H34.095C34.095 24.6772 34.2903 26.156 34.8335 27.5319L42.3677 24.5578ZM42.195 23.22C42.195 22.2235 42.4724 21.9306 42.8575 21.6754C43.5354 21.2262 45.0654 20.709 48.0472 20.709V12.609C44.4275 12.609 41.0063 13.1853 38.3836 14.9231C35.4679 16.8549 34.095 19.8425 34.095 23.22H42.195ZM48.0472 20.709H49.5052V12.609H48.0472V20.709ZM53.5552 16.659V15.3529H45.4552V16.659H53.5552ZM49.7181 11.3085C49.3442 11.2888 49.0033 11.2693 48.6947 11.25L48.1895 19.3342C48.5289 19.3555 48.8967 19.3765 49.2923 19.3973L49.7181 11.3085ZM48.7115 11.2511C48.3316 11.2258 47.9573 11.2117 47.5916 11.2117V19.3117C47.7524 19.3117 47.9451 19.318 48.1727 19.3332L48.7115 11.2511ZM47.5916 11.2117C44.545 11.2117 41.7278 11.582 39.2217 12.4259L41.8067 20.1024C43.2696 19.6097 45.1706 19.3117 47.5916 19.3117V11.2117ZM44.5078 15.5908L43.627 10.3663L35.6397 11.713L36.5206 16.9375L44.5078 15.5908ZM40.8266 14.9098C42.7875 14.3052 45.1759 13.9657 48.0472 13.9657V5.86575C44.56 5.86575 41.3391 6.27552 38.44 7.16942L40.8266 14.9098ZM41.4457 22.4303V23.9186H49.5457V22.4303H41.4457ZM45.4957 27.9686H47.0145V19.8686H45.4957V27.9686ZM47.0145 27.9686C47.6714 27.9686 48.3629 27.9326 49.0244 27.8159C49.6015 27.714 50.5948 27.4805 51.51 26.7941L46.65 20.3141C46.9773 20.0686 47.2607 19.952 47.3968 19.903C47.4723 19.8758 47.5298 19.8597 47.5638 19.8511C47.5814 19.8466 47.5947 19.8436 47.6032 19.8418C47.6118 19.84 47.6164 19.8392 47.6167 19.8391C47.6169 19.8391 47.6037 19.8414 47.5751 19.8448C47.5468 19.8481 47.5068 19.852 47.454 19.8557C47.3469 19.8631 47.2021 19.8686 47.0145 19.8686V27.9686ZM51.8358 26.5219C52.8876 25.5452 53.5552 24.1785 53.5552 22.6125H45.4552C45.4552 22.2541 45.5284 21.8516 45.7078 21.4544C45.8848 21.0626 46.1193 20.7765 46.3241 20.5863L51.8358 26.5219ZM53.5552 22.6125V20.8811H45.4552V22.6125H53.5552ZM49.5052 16.8311H48.0168V24.9311H49.5052V16.8311ZM48.0168 16.8311C47.019 16.8311 45.662 16.9119 44.4412 17.4612L47.7652 24.8478C47.6235 24.9116 47.5205 24.9413 47.4776 24.9525C47.4329 24.9642 47.4232 24.9638 47.4581 24.9588C47.4919 24.9539 47.5548 24.9467 47.6516 24.9408C47.7478 24.935 47.8687 24.9311 48.0168 24.9311V16.8311ZM44.4412 17.4612C41.9013 18.6042 41.4457 21.0824 41.4457 22.4303H49.5457C49.5457 22.4634 49.5469 22.8416 49.3042 23.3514C49.0199 23.9484 48.4936 24.52 47.7652 24.8478L44.4412 17.4612ZM72.6415 28.6875V32.7375C74.4999 32.7375 76.1198 31.4727 76.5705 29.6698L72.6415 28.6875ZM62.8 28.6875L58.8709 29.6698C59.3216 31.4727 60.9416 32.7375 62.8 32.7375V28.6875ZM58.2437 10.4625V6.4125C56.9966 6.4125 55.819 6.98708 55.0515 7.97008C54.284 8.95308 54.0122 10.2349 54.3146 11.4448L58.2437 10.4625ZM65.5337 10.4625L69.5269 9.78672C69.1972 7.83844 67.5097 6.4125 65.5337 6.4125V10.4625ZM67.5385 22.3088L63.5452 22.9845C63.8749 24.9328 65.5625 26.3587 67.5385 26.3587V22.3088ZM67.903 22.3088V26.3587C69.8789 26.3587 71.5665 24.9328 71.8962 22.9845L67.903 22.3088ZM69.9077 10.4625V6.4125C67.9317 6.4125 66.2442 7.83844 65.9145 9.78672L69.9077 10.4625ZM77.1977 10.4625L81.1268 11.4448C81.4293 10.2349 81.1574 8.95308 80.3899 7.97008C79.6224 6.98708 78.4449 6.4125 77.1977 6.4125V10.4625ZM72.6415 24.6375H62.8V32.7375H72.6415V24.6375ZM66.729 27.7052L62.1728 9.48023L54.3146 11.4448L58.8709 29.6698L66.729 27.7052ZM58.2437 14.5125H65.5337V6.4125H58.2437V14.5125ZM61.5405 11.1383L63.5452 22.9845L71.5317 21.633L69.5269 9.78672L61.5405 11.1383ZM67.5385 26.3587H67.903V18.2587H67.5385V26.3587ZM71.8962 22.9845L73.9009 11.1383L65.9145 9.78672L63.9097 21.633L71.8962 22.9845ZM69.9077 14.5125H77.1977V6.4125H69.9077V14.5125ZM73.2686 9.48023L68.7124 27.7052L76.5705 29.6698L81.1268 11.4448L73.2686 9.48023ZM86.1287 22.491V18.441C83.8919 18.441 82.0787 20.2542 82.0787 22.491H86.1287ZM86.1287 23.7668H82.0787C82.0787 25.8304 83.6304 27.5641 85.6814 27.792L86.1287 23.7668ZM95.1804 22.7948L99.1801 22.1584C98.995 20.9946 98.3121 19.9692 97.3096 19.3496C96.3072 18.7301 95.0846 18.5779 93.9608 18.9327L95.1804 22.7948ZM96.0309 28.1408L97.0745 32.054C99.0802 31.5191 100.357 29.5544 100.031 27.5044L96.0309 28.1408ZM80.5701 26.865L77.6329 29.6535C77.6388 29.6597 77.6447 29.6659 77.6507 29.6721L80.5701 26.865ZM80.5701 12.3154L77.6514 9.50755L77.6507 9.50828L80.5701 12.3154ZM92.2037 10.2499L91.4231 14.2239C91.4459 14.2284 91.4688 14.2327 91.4917 14.2368L92.2037 10.2499ZM94.9374 11.313L92.5382 14.5759C92.5741 14.6022 92.6104 14.628 92.647 14.6532L94.9374 11.313ZM96.4258 13.3177L92.5836 14.5985C92.596 14.6356 92.6089 14.6725 92.6224 14.7093L96.4258 13.3177ZM96.3347 19.2105L92.6745 17.4768C92.6678 17.491 92.6611 17.5053 92.6545 17.5196L96.3347 19.2105ZM94.5729 21.0634L92.527 17.5682H92.5269L94.5729 21.0634ZM91.2621 22.1569L91.9088 26.1549C91.9278 26.1518 91.9469 26.1486 91.9659 26.1452L91.2621 22.1569ZM86.1287 18.2689H82.0787C82.0787 20.5056 83.8919 22.3189 86.1287 22.3189V18.2689ZM89.5307 17.9955L87.8687 14.3022C87.8447 14.313 87.8207 14.3241 87.7969 14.3354L89.5307 17.9955ZM90.1382 15.2314H94.1882C94.1882 12.9946 92.3749 11.1814 90.1382 11.1814V15.2314ZM86.7058 15.5047L85.0438 11.8115C85.0198 11.8223 84.9959 11.8333 84.9721 11.8446L86.7058 15.5047ZM82.0787 22.491V23.7668H90.1787V22.491H82.0787ZM85.6814 27.792C86.1196 27.8407 86.5583 27.8772 86.9975 27.9016L87.4468 19.8141C87.157 19.798 86.8667 19.7738 86.5759 19.7415L85.6814 27.792ZM86.9975 27.9016C87.4367 27.926 87.8761 27.9382 88.3157 27.9382V19.8382C88.0262 19.8382 87.7366 19.8302 87.4468 19.8141L86.9975 27.9016ZM88.3157 27.9382C91.0244 27.9382 93.7236 27.5019 96.4 26.6568L93.9608 18.9327C92.0203 19.5456 90.1429 19.8382 88.3157 19.8382V27.9382ZM91.1807 23.4311L92.0312 28.7771L100.031 27.5044L99.1801 22.1584L91.1807 23.4311ZM94.9874 24.2275C92.5715 24.8717 90.229 25.1842 87.9512 25.1842V33.2842C90.9789 33.2842 94.0229 32.8678 97.0745 32.054L94.9874 24.2275ZM87.9512 25.1842C85.054 25.1842 83.9116 24.497 83.4894 24.0579L77.6507 29.6721C80.266 32.392 84.0443 33.2842 87.9512 33.2842V25.1842ZM83.5072 24.0765C82.9806 23.5219 82.3419 22.2868 82.3419 19.575H74.2419C74.2419 23.3837 75.122 27.0086 77.6329 29.6535L83.5072 24.0765ZM82.3419 19.575C82.3419 16.8581 82.9827 15.6494 83.4894 15.1225L77.6507 9.50828C75.1199 12.1403 74.2419 15.7714 74.2419 19.575H82.3419ZM83.4887 15.1232C83.9434 14.6505 85.1012 13.9657 87.9512 13.9657V5.86575C84.0376 5.86575 80.2747 6.78071 77.6514 9.50755L83.4887 15.1232ZM87.9512 13.9657C89.5005 13.9657 90.6356 14.0693 91.4231 14.2239L92.9843 6.27582C91.5037 5.98499 89.8039 5.86575 87.9512 5.86575V13.9657ZM91.4917 14.2368C92.2174 14.3664 92.4919 14.5418 92.5382 14.5759L97.3366 8.05011C96.006 7.07172 94.458 6.53837 92.9156 6.26294L91.4917 14.2368ZM92.647 14.6532C92.6482 14.654 92.6404 14.6486 92.6274 14.6362C92.6144 14.6237 92.601 14.6087 92.5893 14.5929C92.5776 14.5772 92.5717 14.5662 92.5703 14.5636C92.5691 14.5613 92.5746 14.5715 92.5836 14.5985L100.268 12.037C99.7183 10.3881 98.6974 8.98056 97.2278 7.97285L92.647 14.6532ZM92.6224 14.7093C92.708 14.9433 92.8314 15.4836 92.8314 16.4767H100.931C100.931 14.9184 100.751 13.3527 100.229 11.9262L92.6224 14.7093ZM92.8314 16.4767C92.8314 17.0687 92.729 17.3619 92.6745 17.4768L99.9948 20.9442C100.669 19.5201 100.931 17.9908 100.931 16.4767H92.8314ZM92.6545 17.5196C92.6632 17.5007 92.6736 17.4825 92.6842 17.467C92.6947 17.4516 92.7016 17.4443 92.701 17.445C92.7004 17.4456 92.6556 17.4928 92.527 17.5682L96.6189 24.5586C98.043 23.725 99.2687 22.5253 100.015 20.9014L92.6545 17.5196ZM92.5269 17.5682C92.2537 17.7281 91.6577 17.9745 90.5582 18.1685L91.9659 26.1452C93.6205 25.8533 95.2317 25.3706 96.6189 24.5586L92.5269 17.5682ZM90.6153 18.1588C89.5257 18.3351 88.0474 18.441 86.1287 18.441V26.541C88.3005 26.541 90.2444 26.4241 91.9088 26.1549L90.6153 18.1588ZM82.0787 16.7805V18.2689H90.1787V16.7805H82.0787ZM86.1287 22.3189H87.6171V14.2189H86.1287V22.3189ZM87.6171 22.3189C88.592 22.3189 90.0114 22.2492 91.2644 21.6556L87.7969 14.3354C87.9675 14.2545 88.0945 14.217 88.1487 14.2025C88.2057 14.1873 88.2238 14.1865 88.1909 14.1912C88.1597 14.1957 88.0969 14.203 87.9969 14.209C87.8977 14.2149 87.772 14.2189 87.6171 14.2189V22.3189ZM91.1926 21.6888C93.7326 20.5458 94.1882 18.0676 94.1882 16.7197H86.0882C86.0882 16.6866 86.087 16.3084 86.3297 15.7986C86.614 15.2016 87.1403 14.63 87.8687 14.3022L91.1926 21.6888ZM94.1882 16.7197V15.2314H86.0882V16.7197H94.1882ZM90.1382 11.1814H88.6498V19.2814H90.1382V11.1814ZM88.6498 11.1814C87.6477 11.1814 86.2719 11.2588 85.0438 11.8115L88.3678 19.198C88.2209 19.2641 88.1148 19.2943 88.0728 19.3052C88.0287 19.3166 88.0208 19.3157 88.0595 19.3103C88.0969 19.305 88.1642 19.2974 88.2665 19.2914C88.368 19.2854 88.4949 19.2814 88.6498 19.2814V11.1814ZM84.9721 11.8446C82.459 13.035 82.0787 15.5329 82.0787 16.7805H90.1787C90.1787 16.7919 90.1834 17.1423 89.9629 17.6297C89.7044 18.2011 89.2002 18.8046 88.4396 19.1649L84.9721 11.8446ZM128.761 28.6875V32.7375C130.998 32.7375 132.811 30.9243 132.811 28.6875H128.761ZM121.471 28.6875H117.421C117.421 30.9243 119.234 32.7375 121.471 32.7375V28.6875ZM121.471 20.6381H125.521C125.521 18.4014 123.708 16.5881 121.471 16.5881V20.6381ZM116.004 20.6381V16.5881C113.767 16.5881 111.954 18.4014 111.954 20.6381H116.004ZM116.004 28.6875V32.7375C118.24 32.7375 120.054 30.9243 120.054 28.6875H116.004ZM108.714 28.6875H104.664C104.664 30.9243 106.477 32.7375 108.714 32.7375V28.6875ZM108.714 5.90625V1.85625C106.477 1.85625 104.664 3.66949 104.664 5.90625H108.714ZM116.004 5.90625H120.054C120.054 3.66949 118.24 1.85625 116.004 1.85625V5.90625ZM116.004 13.9556H111.954C111.954 16.1924 113.767 18.0056 116.004 18.0056V13.9556ZM121.471 13.9556V18.0056C123.708 18.0056 125.521 16.1924 125.521 13.9556H121.471ZM121.471 5.90625V1.85625C119.234 1.85625 117.421 3.66949 117.421 5.90625H121.471ZM128.761 5.90625H132.811C132.811 3.66949 130.998 1.85625 128.761 1.85625V5.90625ZM128.761 24.6375H121.471V32.7375H128.761V24.6375ZM125.521 28.6875V20.6381H117.421V28.6875H125.521ZM121.471 16.5881H116.004V24.6881H121.471V16.5881ZM111.954 20.6381V28.6875H120.054V20.6381H111.954ZM116.004 24.6375H108.714V32.7375H116.004V24.6375ZM112.764 28.6875V5.90625H104.664V28.6875H112.764ZM108.714 9.95625H116.004V1.85625H108.714V9.95625ZM111.954 5.90625V13.9556H120.054V5.90625H111.954ZM116.004 18.0056H121.471V9.90562H116.004V18.0056ZM125.521 13.9556V5.90625H117.421V13.9556H125.521ZM121.471 9.95625H128.761V1.85625H121.471V9.95625ZM124.711 5.90625V28.6875H132.811V5.90625H124.711ZM149.789 28.6875V32.7375C152.026 32.7375 153.839 30.9243 153.839 28.6875H149.789ZM146.144 28.6875L143.28 31.5513C144.04 32.3108 145.07 32.7375 146.144 32.7375V28.6875ZM144.078 26.622L146.942 23.7582C146.157 22.9726 145.083 22.5442 143.972 22.5734C142.861 22.6026 141.811 23.0868 141.068 23.9127L144.078 26.622ZM142.772 27.7155L140.589 24.3043C140.568 24.3179 140.547 24.3317 140.526 24.3457L142.772 27.7155ZM139.461 29.052L140.282 33.018L139.461 29.052ZM134.966 28.9001L136.015 24.9885C135.993 24.9825 135.971 24.9767 135.948 24.971L134.966 28.9001ZM132.9 27.8978L135.471 24.7682V24.7682L132.9 27.8978ZM131.594 26.0449L135.361 24.5578L131.594 26.0449ZM142.499 16.659V20.709C144.736 20.709 146.549 18.8958 146.549 16.659H142.499ZM142.499 15.3529H146.549C146.549 13.1988 144.863 11.4217 142.712 11.3085L142.499 15.3529ZM141.436 15.2921L141.166 19.3332C141.172 19.3335 141.178 19.3339 141.183 19.3342L141.436 15.2921ZM133.508 16.2641L129.514 16.9375C129.711 18.1063 130.411 19.1301 131.428 19.7389C132.445 20.3478 133.677 20.4806 134.8 20.1024L133.508 16.2641ZM132.627 11.0396L131.434 7.16942C129.493 7.76774 128.296 9.71059 128.633 11.713L132.627 11.0396ZM138.489 23.9186H134.439C134.439 26.1554 136.253 27.9686 138.489 27.9686V23.9186ZM142.074 23.5541L144.504 26.7941C144.617 26.7092 144.726 26.6183 144.83 26.5219L142.074 23.5541ZM142.499 20.8811H146.549C146.549 18.6444 144.736 16.8311 142.499 16.8311V20.8811ZM139.097 21.1545L137.435 17.4612L137.435 17.4612L139.097 21.1545ZM141.041 13.9657C143.619 13.9657 144.835 14.4316 145.308 14.7567C145.493 14.8845 145.558 14.983 145.598 15.0657C145.647 15.1675 145.739 15.4189 145.739 15.93H153.839C153.839 12.7979 152.613 9.9497 149.896 8.08194C147.453 6.40228 144.295 5.86575 141.041 5.86575V13.9657ZM145.739 15.93V28.6875H153.839V15.93H145.739ZM149.789 24.6375H146.144V32.7375H149.789V24.6375ZM149.008 25.8237L146.942 23.7582L141.215 29.4858L143.28 31.5513L149.008 25.8237ZM141.068 23.9127C140.97 24.0215 140.821 24.1562 140.589 24.3043L144.956 31.1267C145.737 30.6268 146.458 30.0325 147.089 29.3313L141.068 23.9127ZM140.526 24.3457C140.29 24.5028 140.022 24.6444 139.712 24.7661L142.674 32.3052C143.498 31.9814 144.283 31.5762 145.019 31.0853L140.526 24.3457ZM139.712 24.7661C139.356 24.906 138.999 25.0118 138.641 25.086L140.282 33.018C141.098 32.8492 141.896 32.6107 142.674 32.3052L139.712 24.7661ZM138.641 25.086C138.298 25.157 138.007 25.1842 137.76 25.1842V33.2842C138.608 33.2842 139.451 33.19 140.282 33.018L138.641 25.086ZM137.76 25.1842C137.013 25.1842 136.443 25.1031 136.015 24.9885L133.917 32.8118C135.15 33.1426 136.442 33.2842 137.76 33.2842V25.1842ZM135.948 24.971C135.64 24.894 135.514 24.8037 135.471 24.7682L130.33 31.0273C131.421 31.9233 132.672 32.5013 133.984 32.8292L135.948 24.971ZM135.471 24.7682C135.477 24.7731 135.473 24.7721 135.459 24.7518C135.443 24.7295 135.406 24.6713 135.361 24.5578L127.827 27.5319C128.351 28.8587 129.166 30.0713 130.33 31.0273L135.471 24.7682ZM135.361 24.5578C135.297 24.3947 135.189 23.9903 135.189 23.22H127.089C127.089 24.6772 127.284 26.156 127.827 27.5319L135.361 24.5578ZM135.189 23.22C135.189 22.2235 135.466 21.9306 135.851 21.6754C136.529 21.2262 138.059 20.709 141.041 20.709V12.609C137.421 12.609 134 13.1853 131.377 14.9231C128.462 16.8549 127.089 19.8425 127.089 23.22H135.189ZM141.041 20.709H142.499V12.609H141.041V20.709ZM146.549 16.659V15.3529H138.449V16.659H146.549ZM142.712 11.3085C142.338 11.2888 141.997 11.2693 141.688 11.25L141.183 19.3342C141.523 19.3555 141.89 19.3765 142.286 19.3973L142.712 11.3085ZM141.705 11.2511C141.325 11.2258 140.951 11.2117 140.585 11.2117V19.3117C140.746 19.3117 140.939 19.318 141.166 19.3332L141.705 11.2511ZM140.585 11.2117C137.539 11.2117 134.722 11.582 132.216 12.4259L134.8 20.1024C136.263 19.6097 138.164 19.3117 140.585 19.3117V11.2117ZM137.502 15.5908L136.621 10.3663L128.633 11.713L129.514 16.9375L137.502 15.5908ZM133.82 14.9098C135.781 14.3052 138.17 13.9657 141.041 13.9657V5.86575C137.554 5.86575 134.333 6.27552 131.434 7.16942L133.82 14.9098ZM134.439 22.4303V23.9186H142.539V22.4303H134.439ZM138.489 27.9686H140.008V19.8686H138.489V27.9686ZM140.008 27.9686C140.665 27.9686 141.357 27.9326 142.018 27.8159C142.595 27.714 143.589 27.4805 144.504 26.7941L139.644 20.3141C139.971 20.0686 140.254 19.952 140.391 19.903C140.466 19.8758 140.524 19.8597 140.558 19.8511C140.575 19.8466 140.588 19.8436 140.597 19.8418C140.606 19.84 140.61 19.8392 140.611 19.8391C140.611 19.8391 140.597 19.8414 140.569 19.8448C140.541 19.8481 140.501 19.852 140.448 19.8557C140.341 19.8631 140.196 19.8686 140.008 19.8686V27.9686ZM144.83 26.5219C145.881 25.5452 146.549 24.1785 146.549 22.6125H138.449C138.449 22.2541 138.522 21.8516 138.702 21.4544C138.879 21.0626 139.113 20.7765 139.318 20.5863L144.83 26.5219ZM146.549 22.6125V20.8811H138.449V22.6125H146.549ZM142.499 16.8311H141.011V24.9311H142.499V16.8311ZM141.011 16.8311C140.013 16.8311 138.656 16.9119 137.435 17.4612L140.759 24.8478C140.617 24.9116 140.514 24.9413 140.471 24.9525C140.427 24.9642 140.417 24.9638 140.452 24.9588C140.486 24.9539 140.549 24.9467 140.645 24.9408C140.742 24.935 140.862 24.9311 141.011 24.9311V16.8311ZM137.435 17.4612C134.895 18.6042 134.439 21.0824 134.439 22.4303H142.539C142.539 22.4634 142.541 22.8416 142.298 23.3514C142.014 23.9484 141.487 24.52 140.759 24.8478L137.435 17.4612ZM166.425 23.22L170.46 22.8702C170.35 21.6032 169.651 20.4613 168.573 19.7867C167.495 19.1121 166.163 18.9831 164.975 19.4383L166.425 23.22ZM166.881 28.4749L168.395 32.231C170.047 31.5652 171.069 29.8989 170.915 28.125L166.881 28.4749ZM154.609 26.865L151.672 29.6535C151.678 29.6597 151.684 29.6659 151.69 29.6721L154.609 26.865ZM154.609 12.3154L157.528 15.1225C157.534 15.1163 157.54 15.1101 157.546 15.1038L154.609 12.3154ZM166.881 10.6751L170.868 11.3845C171.19 9.57346 170.251 7.7727 168.582 6.99988L166.881 10.6751ZM166 15.6262L165.253 19.6069C166.315 19.806 167.413 19.5725 168.302 18.9581C169.191 18.3438 169.798 17.3996 169.987 16.3357L166 15.6262ZM164.268 15.3529L163.628 19.352C163.681 19.3604 163.733 19.3677 163.786 19.374L164.268 15.3529ZM160.168 23.706H156.118C156.118 25.6712 157.529 27.3528 159.464 27.6944L160.168 23.706ZM161.352 23.8579L160.986 27.8912C160.991 27.8917 160.996 27.8922 161.002 27.8926L161.352 23.8579ZM162.39 23.5698L162.846 28.8247L170.915 28.125L170.46 22.8702L162.39 23.5698ZM165.366 24.7187C164.765 24.9611 163.703 25.1842 161.99 25.1842V33.2842C164.287 33.2842 166.485 33.0012 168.395 32.231L165.366 24.7187ZM161.99 25.1842C159.093 25.1842 157.951 24.497 157.528 24.0579L151.69 29.6721C154.305 32.392 158.083 33.2842 161.99 33.2842V25.1842ZM157.546 24.0765C157.02 23.5219 156.381 22.2868 156.381 19.575H148.281C148.281 23.3837 149.161 27.0086 151.672 29.6535L157.546 24.0765ZM156.381 19.575C156.381 16.8581 157.022 15.6494 157.528 15.1225L151.69 9.50828C149.159 12.1403 148.281 15.7714 148.281 19.575H156.381ZM157.546 15.1038C157.971 14.657 159.106 13.9657 161.99 13.9657V5.86575C158.071 5.86575 154.285 6.77425 151.672 9.52692L157.546 15.1038ZM161.99 13.9657C163.965 13.9657 164.889 14.2159 165.179 14.3504L168.582 6.99988C166.686 6.12185 164.349 5.86575 161.99 5.86575V13.9657ZM162.893 9.96571L162.012 14.9168L169.987 16.3357L170.868 11.3845L162.893 9.96571ZM166.746 11.6456C166.034 11.5122 165.367 11.4056 164.751 11.3317L163.786 19.374C164.183 19.4216 164.669 19.4973 165.253 19.6069L166.746 11.6456ZM164.908 11.3537C164.255 11.2493 163.588 11.1814 162.932 11.1814V19.2814C163.045 19.2814 163.269 19.2945 163.628 19.352L164.908 11.3537ZM162.932 11.1814C161.66 11.1814 159.982 11.3827 158.529 12.4046C156.815 13.6098 156.118 15.4377 156.118 17.1754H164.218C164.218 17.3303 164.189 17.6606 164 18.0594C163.801 18.4788 163.502 18.8095 163.189 19.0301C162.901 19.2327 162.68 19.2883 162.647 19.296C162.615 19.3034 162.696 19.2814 162.932 19.2814V11.1814ZM156.118 17.1754V23.706H164.218V17.1754H156.118ZM159.464 27.6944C159.946 27.7794 160.457 27.8432 160.986 27.8912L161.719 19.8245C161.357 19.7916 161.078 19.7541 160.872 19.7176L159.464 27.6944ZM161.002 27.8926C161.605 27.9452 162.241 27.9686 162.901 27.9686V19.8686C162.428 19.8686 162.031 19.8516 161.703 19.8231L161.002 27.8926ZM162.901 27.9686C164.598 27.9686 166.264 27.619 167.875 27.0017L164.975 19.4383C164.156 19.7525 163.473 19.8686 162.901 19.8686V27.9686ZM188.015 28.6875V32.7375C189.396 32.7375 190.682 32.0335 191.427 30.8699C192.171 29.7063 192.271 28.2436 191.692 26.9896L188.015 28.6875ZM180.148 28.6875L176.376 30.1615C176.983 31.715 178.48 32.7375 180.148 32.7375V28.6875ZM177.323 21.4583L181.095 19.9842C180.488 18.4307 178.991 17.4082 177.323 17.4082V21.4583ZM177.08 21.4583V17.4082C174.843 17.4082 173.03 19.2215 173.03 21.4583H177.08ZM177.08 28.6875V32.7375C179.317 32.7375 181.13 30.9243 181.13 28.6875H177.08ZM169.79 28.6875H165.74C165.74 30.9243 167.553 32.7375 169.79 32.7375V28.6875ZM169.79 4.995L169.487 0.956342C167.374 1.11484 165.74 2.87575 165.74 4.995H169.79ZM177.08 4.44825H181.13C181.13 3.32149 180.661 2.24567 179.835 1.47931C179.009 0.712942 177.901 0.325321 176.777 0.409591L177.08 4.44825ZM177.08 16.4767H173.03C173.03 18.7135 174.843 20.5268 177.08 20.5268V16.4767ZM177.323 16.4767V20.5268C178.93 20.5268 180.384 19.5769 181.031 18.106L177.323 16.4767ZM179.966 10.4625V6.4125C178.359 6.4125 176.904 7.36231 176.258 8.83329L179.966 10.4625ZM187.833 10.4625L191.475 12.2328C192.085 10.9777 192.006 9.49691 191.266 8.31394C190.525 7.13097 189.228 6.4125 187.833 6.4125V10.4625ZM183.611 19.1497L179.968 17.3794C179.437 18.4719 179.424 19.7449 179.934 20.8477L183.611 19.1497ZM188.015 24.6375H180.148V32.7375H188.015V24.6375ZM183.92 27.2135L181.095 19.9842L173.551 22.9323L176.376 30.1615L183.92 27.2135ZM177.323 17.4082H177.08V25.5082H177.323V17.4082ZM173.03 21.4583V28.6875H181.13V21.4583H173.03ZM177.08 24.6375H169.79V32.7375H177.08V24.6375ZM173.84 28.6875V4.995H165.74V28.6875H173.84ZM170.093 9.03366L177.383 8.48691L176.777 0.409591L169.487 0.956342L170.093 9.03366ZM173.03 4.44825V16.4767H181.13V4.44825H173.03ZM177.08 20.5268H177.323V12.4267H177.08V20.5268ZM181.031 18.106L183.673 12.0917L176.258 8.83329L173.615 14.8475L181.031 18.106ZM179.966 14.5125H187.833V6.4125H179.966V14.5125ZM184.19 8.69215L179.968 17.3794L187.253 20.9201L191.475 12.2328L184.19 8.69215ZM179.934 20.8477L184.338 30.3854L191.692 26.9896L187.287 17.4518L179.934 20.8477ZM197.306 22.491V18.441C195.069 18.441 193.256 20.2542 193.256 22.491H197.306ZM197.306 23.7668H193.256C193.256 25.8304 194.808 27.5641 196.859 27.792L197.306 23.7668ZM206.358 22.7948L210.357 22.1584C210.172 20.9946 209.489 19.9692 208.487 19.3496C207.484 18.7301 206.262 18.5779 205.138 18.9327L206.358 22.7948ZM207.208 28.1408L208.252 32.054C210.257 31.5191 211.534 29.5544 211.208 27.5044L207.208 28.1408ZM191.747 26.865L188.81 29.6535C188.816 29.6597 188.822 29.6659 188.828 29.6721L191.747 26.865ZM191.747 12.3154L188.829 9.50755L188.828 9.50828L191.747 12.3154ZM203.381 10.2499L202.6 14.2239C202.623 14.2284 202.646 14.2327 202.669 14.2368L203.381 10.2499ZM206.115 11.313L203.715 14.5759C203.751 14.6022 203.788 14.628 203.824 14.6532L206.115 11.313ZM207.603 13.3177L203.761 14.5985C203.773 14.6356 203.786 14.6725 203.8 14.7093L207.603 13.3177ZM207.512 19.2105L203.852 17.4768C203.845 17.491 203.838 17.5053 203.832 17.5196L207.512 19.2105ZM205.75 21.0634L203.704 17.5682L205.75 21.0634ZM202.439 22.1569L203.086 26.1549C203.105 26.1518 203.124 26.1486 203.143 26.1452L202.439 22.1569ZM197.306 18.2689H193.256C193.256 20.5056 195.069 22.3189 197.306 22.3189V18.2689ZM200.708 17.9955L199.046 14.3022C199.022 14.313 198.998 14.3241 198.974 14.3354L200.708 17.9955ZM201.315 15.2314H205.365C205.365 12.9946 203.552 11.1814 201.315 11.1814V15.2314ZM197.883 15.5047L196.221 11.8115C196.197 11.8223 196.173 11.8333 196.149 11.8446L197.883 15.5047ZM193.256 22.491V23.7668H201.356V22.491H193.256ZM196.859 27.792C197.297 27.8407 197.736 27.8772 198.175 27.9016L198.624 19.8141C198.334 19.798 198.044 19.7738 197.753 19.7415L196.859 27.792ZM198.175 27.9016C198.614 27.926 199.053 27.9382 199.493 27.9382V19.8382C199.203 19.8382 198.914 19.8302 198.624 19.8141L198.175 27.9016ZM199.493 27.9382C202.202 27.9382 204.901 27.5019 207.577 26.6568L205.138 18.9327C203.198 19.5456 201.32 19.8382 199.493 19.8382V27.9382ZM202.358 23.4311L203.208 28.7771L211.208 27.5044L210.357 22.1584L202.358 23.4311ZM206.165 24.2275C203.749 24.8717 201.406 25.1842 199.128 25.1842V33.2842C202.156 33.2842 205.2 32.8678 208.252 32.054L206.165 24.2275ZM199.128 25.1842C196.231 25.1842 195.089 24.497 194.667 24.0579L188.828 29.6721C191.443 32.392 195.222 33.2842 199.128 33.2842V25.1842ZM194.684 24.0765C194.158 23.5219 193.519 22.2868 193.519 19.575H185.419C185.419 23.3837 186.299 27.0086 188.81 29.6535L194.684 24.0765ZM193.519 19.575C193.519 16.8581 194.16 15.6494 194.667 15.1225L188.828 9.50828C186.297 12.1403 185.419 15.7714 185.419 19.575H193.519ZM194.666 15.1232C195.121 14.6505 196.278 13.9657 199.128 13.9657V5.86575C195.215 5.86575 191.452 6.78071 188.829 9.50755L194.666 15.1232ZM199.128 13.9657C200.678 13.9657 201.813 14.0693 202.6 14.2239L204.162 6.27582C202.681 5.98499 200.981 5.86575 199.128 5.86575V13.9657ZM202.669 14.2368C203.395 14.3664 203.669 14.5418 203.715 14.5759L208.514 8.05011C207.183 7.07172 205.635 6.53837 204.093 6.26294L202.669 14.2368ZM203.824 14.6532C203.825 14.654 203.818 14.6486 203.805 14.6362C203.792 14.6237 203.778 14.6087 203.767 14.5929C203.755 14.5772 203.749 14.5662 203.748 14.5636C203.746 14.5613 203.752 14.5715 203.761 14.5985L211.445 12.037C210.896 10.3881 209.875 8.98056 208.405 7.97285L203.824 14.6532ZM203.8 14.7093C203.885 14.9433 204.009 15.4836 204.009 16.4767H212.109C212.109 14.9184 211.928 13.3527 211.406 11.9262L203.8 14.7093ZM204.009 16.4767C204.009 17.0687 203.906 17.3619 203.852 17.4768L211.172 20.9442C211.847 19.5201 212.109 17.9908 212.109 16.4767H204.009ZM203.832 17.5196C203.84 17.5007 203.851 17.4825 203.861 17.467C203.872 17.4516 203.879 17.4443 203.878 17.445C203.878 17.4456 203.833 17.4928 203.704 17.5682L207.796 24.5586C209.22 23.725 210.446 22.5253 211.192 20.9014L203.832 17.5196ZM203.704 17.5682C203.431 17.7281 202.835 17.9745 201.735 18.1685L203.143 26.1452C204.798 25.8533 206.409 25.3706 207.796 24.5586L203.704 17.5682ZM201.793 18.1588C200.703 18.3351 199.225 18.441 197.306 18.441V26.541C199.478 26.541 201.422 26.4241 203.086 26.1549L201.793 18.1588ZM193.256 16.7805V18.2689H201.356V16.7805H193.256ZM197.306 22.3189H198.794V14.2189H197.306V22.3189ZM198.794 22.3189C199.769 22.3189 201.189 22.2492 202.442 21.6556L198.974 14.3354C199.145 14.2545 199.272 14.217 199.326 14.2025C199.383 14.1873 199.401 14.1865 199.368 14.1912C199.337 14.1957 199.274 14.203 199.174 14.209C199.075 14.2149 198.949 14.2189 198.794 14.2189V22.3189ZM202.37 21.6888C204.91 20.5458 205.365 18.0676 205.365 16.7197H197.265C197.265 16.6866 197.264 16.3084 197.507 15.7986C197.791 15.2016 198.318 14.63 199.046 14.3022L202.37 21.6888ZM205.365 16.7197V15.2314H197.265V16.7197H205.365ZM201.315 11.1814H199.827V19.2814H201.315V11.1814ZM199.827 11.1814C198.825 11.1814 197.449 11.2588 196.221 11.8115L199.545 19.198C199.398 19.2641 199.292 19.2943 199.25 19.3052C199.206 19.3166 199.198 19.3157 199.237 19.3103C199.274 19.305 199.341 19.2974 199.444 19.2914C199.545 19.2854 199.672 19.2814 199.827 19.2814V11.1814ZM196.149 11.8446C193.636 13.035 193.256 15.5329 193.256 16.7805H201.356C201.356 16.7919 201.361 17.1423 201.14 17.6297C200.882 18.2011 200.377 18.8046 199.617 19.1649L196.149 11.8446ZM210.784 28.6875H206.734C206.734 30.9243 208.548 32.7375 210.784 32.7375V28.6875ZM210.784 10.4625V6.4125C208.548 6.4125 206.734 8.22575 206.734 10.4625H210.784ZM214.429 10.4625L217.315 7.62033C216.553 6.8476 215.514 6.4125 214.429 6.4125V10.4625ZM216.434 12.4976L213.549 15.3398C215.079 16.8929 217.564 16.9563 219.171 15.4831L216.434 12.4976ZM221.841 9.91575L225.883 9.66644C225.812 8.51303 225.252 7.44494 224.343 6.73103C223.434 6.01713 222.264 5.7254 221.126 5.92928L221.841 9.91575ZM222.266 16.8109V20.8609C223.384 20.8609 224.451 20.3992 225.217 19.5851C225.982 18.771 226.377 17.6769 226.308 16.5616L222.266 16.8109ZM219.988 17.2361L218.875 13.342C218.858 13.3468 218.841 13.3518 218.824 13.3569L219.988 17.2361ZM218.864 17.6917L220.589 21.3563C220.646 21.3292 220.703 21.3008 220.759 21.2711L218.864 17.6917ZM218.074 18.2689L214.94 15.7043C214.348 16.4278 214.024 17.334 214.024 18.2689H218.074ZM218.074 28.6875V32.7375C220.311 32.7375 222.124 30.9243 222.124 28.6875H218.074ZM214.834 28.6875V10.4625H206.734V28.6875H214.834ZM210.784 14.5125H214.429V6.4125H210.784V14.5125ZM211.544 13.3047L213.549 15.3398L219.319 9.65545L217.315 7.62033L211.544 13.3047ZM219.171 15.4831C220.006 14.7175 221.084 14.166 222.555 13.9022L221.126 5.92928C218.305 6.43503 215.778 7.60474 213.697 9.51215L219.171 15.4831ZM217.799 10.1651L218.224 17.0602L226.308 16.5616L225.883 9.66644L217.799 10.1651ZM222.266 12.7609C221.625 12.7609 220.999 12.8491 220.439 12.961L222.028 20.9037C222.143 20.8806 222.222 20.869 222.268 20.8635C222.317 20.8578 222.313 20.8609 222.266 20.8609V12.7609ZM220.439 12.961C219.92 13.0649 219.398 13.1925 218.875 13.342L221.101 21.1303C221.428 21.0367 221.737 20.9619 222.028 20.9037L220.439 12.961ZM218.824 13.3569C218.188 13.5479 217.566 13.7966 216.969 14.1124L220.759 21.2711C220.851 21.2224 220.978 21.1673 221.152 21.1153L218.824 13.3569ZM217.14 14.0272C216.417 14.3671 215.607 14.8893 214.94 15.7043L221.209 20.8335C220.907 21.203 220.622 21.3404 220.589 21.3563L217.14 14.0272ZM214.024 18.2689V28.6875H222.124V18.2689H214.024ZM218.074 24.6375H210.784V32.7375H218.074V24.6375Z" fill="white" mask="url(#path-1-outside-1_4052_13121)"/>
</svg>
