<svg width="568" height="64" viewBox="0 0 568 64" fill="none" xmlns="http://www.w3.org/2000/svg" preserveAspectRatio="none">
<mask id="path-1-inside-1_22_39" fill="white">
<path d="M559 11.1309H568V52.7061H559V63.8359H565.135C564.775 63.9422 564.394 64 564 64H4C3.60575 64 3.22504 63.9422 2.86523 63.8359H7.69727V52.7061H0V11.1309H8.69727V0H559V11.1309Z"/>
</mask>
<path d="M559 11.1309H555V15.1309H559V11.1309ZM568 11.1309H572V7.13086H568V11.1309ZM568 52.7061V56.7061H572V52.7061H568ZM559 52.7061V48.7061H555V52.7061H559ZM559 63.8359H555V67.8359H559V63.8359ZM565.135 63.8359L566.268 67.6721L565.135 59.8359V63.8359ZM2.86523 63.8359V59.8359L1.73218 67.6721L2.86523 63.8359ZM7.69727 63.8359V67.8359H11.6973V63.8359H7.69727ZM7.69727 52.7061H11.6973V48.7061H7.69727V52.7061ZM0 52.7061H-4V56.7061H0V52.7061ZM0 11.1309V7.13086H-4V11.1309H0ZM8.69727 11.1309V15.1309H12.6973V11.1309H8.69727ZM8.69727 0V-4H4.69727V0H8.69727ZM559 0H563V-4H559V0ZM559 11.1309V15.1309H568V11.1309V7.13086H559V11.1309ZM568 11.1309H564V52.7061H568H572V11.1309H568ZM568 52.7061V48.7061H559V52.7061V56.7061H568V52.7061ZM559 52.7061H555V63.8359H559H563V52.7061H559ZM559 63.8359V67.8359H565.135V63.8359V59.8359H559V63.8359ZM565.135 63.8359L564.002 59.9998C564.001 60.0001 564 60.0001 564.001 60C564.001 59.9999 564.001 60 564 60V64V68C564.787 68 565.549 67.8843 566.268 67.6721L565.135 63.8359ZM564 64V60H4V64V68H564V64ZM4 64V60C3.99863 60 3.99852 59.9999 3.99909 60C3.99957 60.0001 3.9994 60.0001 3.99829 59.9998L2.86523 63.8359L1.73218 67.6721C2.4507 67.8843 3.21273 68 4 68V64ZM2.86523 63.8359V67.8359H7.69727V63.8359V59.8359H2.86523V63.8359ZM7.69727 63.8359H11.6973V52.7061H7.69727H3.69727V63.8359H7.69727ZM7.69727 52.7061V48.7061H0V52.7061V56.7061H7.69727V52.7061ZM0 52.7061H4V11.1309H0H-4V52.7061H0ZM0 11.1309V15.1309H8.69727V11.1309V7.13086H0V11.1309ZM8.69727 11.1309H12.6973V0H8.69727H4.69727V11.1309H8.69727ZM8.69727 0V4H559V0V-4H8.69727V0ZM559 0H555V11.1309H559H563V0H559Z" fill="#C2C2C2" mask="url(#path-1-inside-1_22_39)"/>
</svg>
