<svg width="329" height="440" viewBox="0 0 329 440" fill="none" xmlns="http://www.w3.org/2000/svg">
<g clip-path="url(#clip0_4052_9369)">
<rect width="329" height="440" rx="40" fill="white"/>
<g clip-path="url(#clip1_4052_9369)">
<rect width="2256.98" height="231" transform="matrix(-1 0 0 -1 1292.98 223)" fill="#E91B2F"/>
<path d="M307.318 145.311C309.134 145.311 310.607 143.838 310.607 142.021V117.804C310.607 115.987 309.134 114.514 307.318 114.514L263.476 114.514C260.601 114.514 259.109 117.942 261.068 120.046L283.614 144.262C284.237 144.931 285.109 145.311 286.022 145.311H307.318Z" fill="#FF3044"/>
<path d="M132.841 114.517C131.024 114.517 129.551 115.99 129.551 117.807V142.023C129.551 143.84 131.024 145.313 132.841 145.313H176.682C179.557 145.313 181.049 141.885 179.09 139.781L156.544 115.565C155.922 114.896 155.049 114.517 154.136 114.517H132.841Z" fill="#FF3044"/>
<path d="M271.731 145.311C274.604 145.311 276.096 141.887 274.142 139.782L252.544 116.523C251.979 115.914 251.665 115.115 251.665 114.284V98.6894C251.665 96.8725 250.192 95.3995 248.375 95.3995L234.778 95.3995C232.961 95.3995 231.488 96.8725 231.488 98.6894V142.021C231.488 143.838 232.961 145.311 234.778 145.311H271.731Z" fill="#FF3044"/>
<rect width="13.2742" height="20.1767" rx="3.28991" transform="matrix(0 -1 -1 0 251.676 91.1543)" fill="#FF3044"/>
<path fill-rule="evenodd" clip-rule="evenodd" d="M224.161 111.253C225.978 111.253 227.451 109.78 227.451 107.963V81.0917C227.451 79.2747 225.978 77.8018 224.161 77.8018L191.794 77.8018C189.977 77.8018 188.504 79.2747 188.504 81.0917V107.963C188.504 109.78 189.977 111.253 191.794 111.253L224.161 111.253ZM208.034 111.245C209.851 111.245 211.324 109.772 211.324 107.955V94.8893C211.324 93.0724 209.851 91.5994 208.034 91.5994H207.711C205.894 91.5994 204.421 93.0724 204.421 94.8893V107.955C204.421 109.772 205.894 111.245 207.711 111.245H208.034Z" fill="#FF3044"/>
<path d="M221.262 124.104C223.103 121.462 227.252 122.764 227.252 125.985V141.948C227.252 143.765 225.779 145.238 223.962 145.238H212.845C210.187 145.238 208.626 142.249 210.145 140.068L221.262 124.104Z" fill="#FF3044"/>
<path d="M204.127 142.44C203.038 143.991 200.858 144.307 199.559 142.926C196.556 139.734 194.065 135.624 192.211 131.784C190.325 127.881 189.138 123.659 188.697 119.328C188.513 117.523 189.977 116.026 191.792 115.998L216.567 115.606C219.253 115.563 220.855 118.585 219.313 120.784L204.127 142.44Z" fill="#FF3044"/>
<path d="M178.537 134.942C180.573 137.129 184.234 135.688 184.234 132.7V106.814L184.234 81.1662C184.234 79.3492 182.761 77.8763 180.944 77.8763H158.852C157.035 77.8763 155.562 79.3492 155.562 81.1662L155.562 108.971C155.562 109.803 155.877 110.604 156.444 111.213L178.537 134.942Z" fill="#FF3044"/>
<path fill-rule="evenodd" clip-rule="evenodd" d="M270.681 77.8765C272.498 77.8765 273.971 79.3495 273.971 81.1665V106.976C273.971 108.793 272.498 110.266 270.681 110.266H259.208C257.391 110.266 255.918 108.793 255.918 106.976V81.1665C255.918 79.3495 257.391 77.8765 259.208 77.8765H270.681ZM271.046 90.6154C272.659 90.6154 273.967 91.9228 273.967 93.5357V94.5977C273.967 96.2105 272.659 97.518 271.046 97.518C269.433 97.518 268.126 96.2105 268.126 94.5977V93.5357C268.126 91.9228 269.433 90.6154 271.046 90.6154Z" fill="#FF3044"/>
<path fill-rule="evenodd" clip-rule="evenodd" d="M294.421 77.8765H294.156C294.156 77.8765 294.155 77.877 294.155 77.8776C294.155 77.8782 294.155 77.8787 294.154 77.8787C285.333 78.021 278.226 85.2161 278.226 94.0711C278.226 102.926 285.333 110.121 294.154 110.263C294.155 110.263 294.155 110.264 294.155 110.265C294.155 110.265 294.156 110.266 294.156 110.266H294.421H307.325C309.142 110.266 310.615 108.793 310.615 106.976V94.0711V81.1665C310.615 79.3495 309.142 77.8765 307.325 77.8765H294.421Z" fill="#FF3044"/>
<path fill-rule="evenodd" clip-rule="evenodd" d="M136.823 110.254C145.65 110.119 152.764 102.921 152.764 94.0617C152.764 85.2026 145.65 78.0049 136.823 77.8691V77.8672H136.569H129.531V110.256H136.569H136.823V110.254Z" fill="#FF3044"/>
<path fill-rule="evenodd" clip-rule="evenodd" d="M360.767 114.989C348.597 114.989 338.732 105.123 338.732 92.9538C338.732 89.8263 339.383 86.8511 340.558 84.1563C341.711 81.5114 340.001 77.8223 337.116 77.8223H318.124C316.307 77.8223 314.835 79.2947 314.835 81.1111L314.835 118.521C314.835 120.338 316.307 121.81 318.124 121.81L327.342 121.81C329.158 121.81 330.631 123.282 330.631 125.099V130.91C330.631 132.726 329.158 134.199 327.342 134.199H318.124C316.307 134.199 314.835 135.671 314.835 137.487V141.966C314.835 143.783 316.307 145.255 318.124 145.255H339.399C340.325 145.255 341.207 144.865 341.831 144.181L363.7 120.164C365.118 118.606 362.874 114.989 360.767 114.989Z" fill="#FF3044"/>
<path d="M122.052 77.7988C123.869 77.7988 125.342 79.2718 125.342 81.0887L125.342 105.305C125.342 107.122 123.869 108.595 122.052 108.595L78.2104 108.595C75.3357 108.595 73.8436 105.167 75.8025 103.063L98.3486 78.8469C98.971 78.1785 99.8432 77.7988 100.757 77.7988H122.052Z" fill="#FF3044"/>
<path d="M86.4789 77.8154C89.3516 77.8154 90.8445 81.2389 88.8898 83.344L67.2921 106.603C66.727 107.211 66.413 108.011 66.413 108.842L66.413 124.437C66.413 126.254 64.9401 127.726 63.1231 127.726L49.5262 127.726C47.7092 127.726 46.2363 126.254 46.2363 124.437L46.2363 81.1053C46.2363 79.2884 47.7092 77.8154 49.5262 77.8154L86.4789 77.8154Z" fill="#FF3044"/>
<rect x="66.4023" y="131.973" width="13.2742" height="20.1767" rx="3.28991" transform="rotate(90 66.4023 131.973)" fill="#FF3044"/>
<path fill-rule="evenodd" clip-rule="evenodd" d="M38.6906 111.25C40.5075 111.25 41.9805 109.777 41.9805 107.96L41.9805 81.0887C41.9805 79.2718 40.5075 77.7988 38.6906 77.7988L6.50986 77.7988C4.69289 77.7988 3.21995 79.2718 3.21995 81.0887L3.21995 107.96C3.21995 109.777 4.69289 111.25 6.50986 111.25H38.6906ZM22.756 111.242C24.573 111.242 26.0459 109.769 26.0459 107.952V94.8864C26.0459 93.0694 24.573 91.5965 22.756 91.5965H22.4333C20.6163 91.5965 19.1433 93.0694 19.1433 94.8864L19.1433 107.952C19.1433 109.769 20.6163 111.242 22.4333 111.242H22.756Z" fill="#FF3044"/>
<path d="M35.9967 124.118C37.8373 121.475 41.9863 122.778 41.9863 125.998L41.9863 141.962C41.9863 143.779 40.5134 145.252 38.6964 145.252H27.5789C24.9209 145.252 23.3602 142.263 24.8792 140.082L35.9967 124.118Z" fill="#FF3044"/>
<path d="M18.8435 142.453C17.7552 144.005 15.5749 144.32 14.276 142.94C11.2726 139.748 8.78157 135.638 6.92735 131.798C5.04227 127.894 3.8548 123.673 3.41379 119.342C3.22991 117.536 4.6936 116.04 6.50858 116.011L31.2839 115.62C33.9702 115.577 35.5721 118.598 34.0295 120.798L18.8435 142.453Z" fill="#FF3044"/>
<path d="M-6.72361 88.1843C-4.68756 85.9974 -1.02582 87.4382 -1.02582 90.4261L-1.02582 116.312C-1.02582 116.312 -1.02582 123.48 3.22191 132.905C4.0494 134.741 4.99853 136.383 5.97033 137.824C7.75202 140.465 5.84815 145.25 2.6619 145.25H-26.4081C-28.225 145.25 -29.698 143.777 -29.698 141.96L-29.698 114.155C-29.698 113.323 -29.3828 112.522 -28.8159 111.913L-6.72361 88.1843Z" fill="#FF3044"/>
<path fill-rule="evenodd" clip-rule="evenodd" d="M85.7908 125.604C87.4014 125.604 88.707 124.298 88.707 122.688V116.146C88.707 114.329 87.2341 112.856 85.4171 112.856H73.9441C72.1271 112.856 70.6542 114.329 70.6542 116.146V141.956C70.6542 143.773 72.1271 145.246 73.9441 145.246H85.4171C87.2341 145.246 88.707 143.773 88.707 141.956L88.707 135.423C88.707 133.812 87.4014 132.507 85.7908 132.507C84.1802 132.507 82.8746 131.201 82.8746 129.59V128.52C82.8746 126.91 84.1802 125.604 85.7908 125.604Z" fill="#FF3044"/>
<path fill-rule="evenodd" clip-rule="evenodd" d="M109.155 145.246H108.891C108.89 145.246 108.89 145.245 108.89 145.244C108.89 145.244 108.889 145.243 108.889 145.243C100.068 145.101 92.9607 137.906 92.9607 129.051C92.9607 120.196 100.068 113.001 108.889 112.859C108.889 112.859 108.89 112.858 108.89 112.858C108.89 112.857 108.89 112.856 108.891 112.856H109.155H122.06C123.877 112.856 125.35 114.329 125.35 116.146V129.051L125.35 141.956C125.35 143.773 123.877 145.246 122.06 145.246H109.155Z" fill="#FF3044"/>
<path d="M307.329 1.7207C309.146 1.7207 310.619 0.247758 310.619 -1.56921V-25.7856C310.619 -27.6025 309.146 -29.0755 307.329 -29.0755L263.488 -29.0755C260.613 -29.0755 259.121 -25.6477 261.08 -23.5438L283.626 0.672589C284.248 1.34104 285.121 1.7207 286.034 1.7207L307.329 1.7207Z" fill="#FF3044"/>
<path d="M132.85 -29.0732C131.033 -29.0732 129.561 -27.6003 129.561 -25.7833V-1.56698C129.561 0.249994 131.033 1.72294 132.85 1.72294L176.692 1.72294C179.567 1.72294 181.059 -1.7048 179.1 -3.80878L156.554 -28.0251C155.931 -28.6936 155.059 -29.0732 154.146 -29.0732L132.85 -29.0732Z" fill="#FF3044"/>
<path d="M271.743 1.72949C274.615 1.72949 276.108 -1.694 274.153 -3.79905L252.556 -27.058C251.991 -27.6666 251.677 -28.4662 251.677 -29.2967V-44.8916C251.677 -46.7086 250.204 -48.1815 248.387 -48.1815L234.79 -48.1815C232.973 -48.1815 231.5 -46.7086 231.5 -44.8916V-1.56042C231.5 0.256547 232.973 1.72949 234.79 1.72949L271.743 1.72949Z" fill="#FF3044"/>
<path d="M221.268 -19.4707C223.109 -22.1136 227.258 -20.8112 227.258 -17.5906V-1.62697C227.258 0.190004 225.785 1.66295 223.968 1.66295L212.85 1.66295C210.192 1.66295 208.632 -1.32594 210.151 -3.50713L221.268 -19.4707Z" fill="#FF3044"/>
<path d="M204.131 -1.13561C203.042 0.416216 200.862 0.731396 199.563 -0.648952C196.56 -3.84077 194.069 -7.95099 192.214 -11.7908C190.329 -15.6945 189.142 -19.9157 188.701 -24.2467C188.517 -26.0526 189.981 -27.5489 191.796 -27.5776L216.571 -27.9693C219.257 -28.0118 220.859 -24.9906 219.317 -22.7909L204.131 -1.13561Z" fill="#FF3044"/>
<path fill-rule="evenodd" clip-rule="evenodd" d="M360.788 -28.595C348.619 -28.595 338.753 -38.4605 338.753 -50.6302C338.753 -53.7576 339.405 -56.7329 340.579 -59.4276C341.732 -62.0726 340.023 -65.7617 337.137 -65.7617H318.145C316.329 -65.7617 314.856 -64.2893 314.856 -62.4729V-25.0534C314.856 -23.2371 316.329 -21.7646 318.145 -21.7646L327.371 -21.7646C329.187 -21.7646 330.66 -20.2922 330.66 -18.4758V-12.6648C330.66 -10.8485 329.187 -9.37603 327.371 -9.37603L318.145 -9.37603C316.329 -9.37603 314.856 -7.90358 314.856 -6.08723V-1.61749C314.856 0.19886 316.329 1.6713 318.145 1.6713L339.42 1.6713C340.346 1.6713 341.229 1.2812 341.852 0.596756L363.721 -23.4202C365.14 -24.9783 362.896 -28.595 360.788 -28.595Z" fill="#FF3044"/>
<rect x="66.4102" y="-11.6172" width="13.2742" height="20.1767" rx="3.28991" transform="rotate(90 66.4102 -11.6172)" fill="#FF3044"/>
<path d="M36.0084 -19.4727C37.849 -22.1156 41.998 -20.8132 41.998 -17.5925L41.998 -1.62892C41.998 0.188051 40.5251 1.66099 38.7081 1.66099L27.5907 1.66099C24.9327 1.66099 23.3719 -1.3279 24.8909 -3.50908L36.0084 -19.4727Z" fill="#FF3044"/>
<path d="M18.8513 -1.13757C17.763 0.414263 15.5827 0.729443 14.2838 -0.650906C11.2804 -3.84272 8.78938 -7.95294 6.93516 -11.7928C5.05009 -15.6965 3.86261 -19.9177 3.4216 -24.2487C3.23772 -26.0545 4.70141 -27.5509 6.5164 -27.5796L31.2917 -27.9713C33.978 -28.0138 35.5799 -24.9926 34.0373 -22.7929L18.8513 -1.13757Z" fill="#FF3044"/>
<path d="M-6.7158 -55.4055C-4.67974 -57.5924 -1.01801 -56.1517 -1.01801 -53.1637L-1.01801 -27.2779C-1.01801 -27.2779 -1.01801 -20.1098 3.22972 -10.6851C4.05721 -8.84915 5.00634 -7.20706 5.97814 -5.76626C7.75983 -3.12472 5.85596 1.65987 2.66971 1.65987L-26.4003 1.65987C-28.2172 1.65987 -29.6902 0.186928 -29.6902 -1.63004L-29.6902 -29.4348C-29.6902 -30.2667 -29.375 -31.0677 -28.8081 -31.6766L-6.7158 -55.4055Z" fill="#FF3044"/>
<path fill-rule="evenodd" clip-rule="evenodd" d="M85.7986 -17.9799C87.4092 -17.9799 88.7148 -19.2855 88.7148 -20.8961V-27.4376C88.7148 -29.2546 87.2419 -30.7275 85.4249 -30.7275L73.9519 -30.7275C72.1349 -30.7275 70.662 -29.2546 70.662 -27.4376V-1.62838C70.662 0.188593 72.1349 1.66154 73.9519 1.66154L85.4249 1.66154C87.2419 1.66154 88.7148 0.188593 88.7148 -1.62838L88.7148 -8.16108C88.7148 -9.77166 87.4092 -11.0773 85.7986 -11.0773C84.1881 -11.0773 82.8824 -12.3829 82.8824 -13.9935V-15.0637C82.8824 -16.6742 84.1881 -17.9799 85.7986 -17.9799Z" fill="#FF3044"/>
<path fill-rule="evenodd" clip-rule="evenodd" d="M109.145 1.66154H108.881C108.88 1.66154 108.88 1.66106 108.88 1.66046C108.88 1.65987 108.879 1.6594 108.879 1.65939C100.058 1.51704 92.9509 -5.67802 92.9509 -14.533C92.9509 -23.388 100.058 -30.583 108.879 -30.7254C108.879 -30.7254 108.88 -30.7259 108.88 -30.7265C108.88 -30.7271 108.88 -30.7275 108.881 -30.7275H109.145L122.05 -30.7275C123.867 -30.7275 125.34 -29.2546 125.34 -27.4376V-14.533L125.34 -1.62838C125.34 0.188593 123.867 1.66154 122.05 1.66154L109.145 1.66154Z" fill="#FF3044"/>
<path d="M348.009 149.675C349.826 149.675 351.299 151.148 351.299 152.965V177.181C351.299 178.998 349.826 180.471 348.009 180.471H304.167C301.293 180.471 299.801 177.043 301.76 174.939L324.306 150.723C324.928 150.054 325.8 149.675 326.714 149.675H348.009Z" fill="#FF3044"/>
<path d="M173.534 180.47C171.717 180.47 170.244 178.997 170.244 177.18V152.963C170.244 151.146 171.717 149.674 173.534 149.674H217.376C220.25 149.674 221.742 153.101 219.783 155.205L197.237 179.422C196.615 180.09 195.743 180.47 194.829 180.47H173.534Z" fill="#FF3044"/>
<path d="M97.3917 217.17C99.2087 217.17 100.682 215.697 100.682 213.88L100.682 189.664C100.682 187.847 99.2087 186.374 97.3917 186.374H53.5502C50.6755 186.374 49.1835 189.801 51.1423 191.905L73.6885 216.122C74.3108 216.79 75.183 217.17 76.0964 217.17H97.3917Z" fill="#FF3044"/>
<path d="M312.43 149.675C315.303 149.675 316.796 153.098 314.841 155.203L293.243 178.462C292.678 179.071 292.364 179.871 292.364 180.701V196.296C292.364 198.113 290.891 199.586 289.074 199.586H275.477C273.66 199.586 272.187 198.113 272.187 196.296V152.965C272.187 151.148 273.66 149.675 275.477 149.675H312.43Z" fill="#FF3044"/>
<rect x="292.363" y="203.832" width="13.2742" height="20.1767" rx="3.28991" transform="rotate(90 292.363 203.832)" fill="#FF3044"/>
<path fill-rule="evenodd" clip-rule="evenodd" d="M264.644 183.109C266.461 183.109 267.934 181.636 267.934 179.819V152.948C267.934 151.131 266.461 149.658 264.644 149.658H232.463C230.646 149.658 229.173 151.131 229.173 152.948V179.819C229.173 181.636 230.646 183.109 232.463 183.109H264.644ZM248.705 183.102C250.522 183.102 251.995 181.629 251.995 179.812V166.746C251.995 164.929 250.522 163.456 248.705 163.456H248.382C246.565 163.456 245.092 164.929 245.092 166.746V179.812C245.092 181.629 246.565 183.102 248.382 183.102H248.705Z" fill="#FF3044"/>
<path d="M261.944 195.978C263.785 193.335 267.934 194.637 267.934 197.858V213.821C267.934 215.638 266.461 217.111 264.644 217.111H253.526C250.868 217.111 249.307 214.122 250.826 211.941L261.944 195.978Z" fill="#FF3044"/>
<path d="M244.789 214.304C243.701 215.856 241.52 216.171 240.221 214.791C237.218 211.599 234.727 207.488 232.873 203.649C230.988 199.745 229.8 195.524 229.359 191.193C229.175 189.387 230.639 187.891 232.454 187.862L257.229 187.47C259.916 187.428 261.517 190.449 259.975 192.649L244.789 214.304Z" fill="#FF3044"/>
<path d="M219.22 160.044C221.256 157.857 224.918 159.298 224.918 162.286V188.171C224.918 188.171 224.918 195.339 229.165 204.764C229.993 206.6 230.942 208.242 231.914 209.683C233.695 212.325 231.792 217.109 228.605 217.109H199.535C197.718 217.109 196.245 215.636 196.245 213.819V186.014C196.245 185.183 196.561 184.381 197.127 183.773L219.22 160.044Z" fill="#FF3044"/>
<path fill-rule="evenodd" clip-rule="evenodd" d="M311.75 197.463C313.36 197.463 314.666 196.158 314.666 194.547V188.006C314.666 186.189 313.193 184.716 311.376 184.716H299.903C298.086 184.716 296.613 186.189 296.613 188.006V213.815C296.613 215.632 298.086 217.105 299.903 217.105H311.376C313.193 217.105 314.666 215.632 314.666 213.815V207.282C314.666 205.672 313.36 204.366 311.75 204.366C310.139 204.366 308.834 203.06 308.834 201.45V200.38C308.834 198.769 310.139 197.463 311.75 197.463Z" fill="#FF3044"/>
<path d="M188.716 184.719C190.533 184.719 192.006 186.192 192.006 188.009V213.818C192.006 215.635 190.533 217.108 188.716 217.108H142.735C139.862 217.108 138.369 213.685 140.323 211.58L164.278 185.771C164.9 185.1 165.774 184.719 166.689 184.719H188.716Z" fill="#FF3044"/>
<path fill-rule="evenodd" clip-rule="evenodd" d="M335.1 217.105H334.836C334.835 217.105 334.835 217.104 334.835 217.104C334.835 217.103 334.834 217.103 334.834 217.103C326.013 216.96 318.906 209.765 318.906 200.91C318.906 192.055 326.013 184.86 334.834 184.718C334.834 184.718 334.835 184.717 334.835 184.717C334.835 184.716 334.835 184.716 334.836 184.716H335.1H348.005C349.822 184.716 351.295 186.189 351.295 188.006V200.91V213.815C351.295 215.632 349.822 217.105 348.005 217.105H335.1Z" fill="#FF3044"/>
<path d="M61.8012 217.17C64.6739 217.17 66.1667 213.746 64.212 211.641L42.6144 188.382C42.0493 187.774 41.7353 186.974 41.7353 186.144L41.7353 170.549C41.7353 168.732 40.2623 167.259 38.4454 167.259H24.8485C23.0315 167.259 21.5586 168.732 21.5586 170.549L21.5586 213.88C21.5586 215.697 23.0315 217.17 24.8485 217.17H61.8012Z" fill="#FF3044"/>
<rect width="13.2742" height="20.1767" rx="3.28991" transform="matrix(0 -1 -1 0 41.7422 163.014)" fill="#FF3044"/>
<path fill-rule="evenodd" clip-rule="evenodd" d="M14.212 183.139C16.029 183.139 17.502 181.666 17.502 179.849L17.502 152.977C17.502 151.16 16.029 149.688 14.212 149.688H-18.1555C-19.9725 149.688 -21.4454 151.16 -21.4454 152.977L-21.4454 179.849C-21.4454 181.666 -19.9725 183.139 -18.1555 183.139H-8.81787C-7.00089 183.139 -5.52795 181.666 -5.52795 179.849L-5.52795 166.783C-5.52795 164.966 -4.055 163.493 -2.23804 163.493H-1.91531C-0.0983372 163.493 1.37461 164.966 1.37461 166.783L1.37461 179.849C1.37461 181.666 2.84755 183.139 4.66452 183.139H14.212Z" fill="#FF3044"/>
<path d="M11.3307 195.988C13.1712 193.345 17.3203 194.648 17.3203 197.868L17.3203 213.832C17.3203 215.649 15.8474 217.122 14.0304 217.122H2.91293C0.254917 217.122 -1.30583 214.133 0.213207 211.952L11.3307 195.988Z" fill="#FF3044"/>
<path d="M-5.81279 214.316C-6.90103 215.867 -9.08134 216.183 -10.3802 214.802C-13.3836 211.61 -15.8747 207.5 -17.7289 203.66C-19.614 199.757 -20.8015 195.535 -21.2425 191.204C-21.4263 189.399 -19.9627 187.902 -18.1477 187.874L6.62762 187.482C9.31396 187.439 10.9158 190.461 9.37324 192.66L-5.81279 214.316Z" fill="#FF3044"/>
<path fill-rule="evenodd" clip-rule="evenodd" d="M60.7491 149.754C62.5661 149.754 64.0391 151.226 64.0391 153.043L64.0391 178.853C64.0391 180.67 62.5661 182.143 60.7491 182.143H49.2761C47.4592 182.143 45.9862 180.67 45.9862 178.853L45.9862 153.043C45.9862 151.226 47.4592 149.754 49.2761 149.754H60.7491ZM61.1105 162.492C62.7234 162.492 64.0309 163.8 64.0309 165.413V166.475C64.0309 168.087 62.7234 169.395 61.1105 169.395C59.4977 169.395 58.1902 168.087 58.1902 166.475V165.413C58.1902 163.8 59.4977 162.492 61.1105 162.492Z" fill="#FF3044"/>
<ellipse cx="149.277" cy="166.4" rx="16.7255" ry="16.7254" transform="rotate(90 149.277 166.4)" fill="#FF3044"/>
<path fill-rule="evenodd" clip-rule="evenodd" d="M84.4872 149.754H84.2228C84.2222 149.754 84.2217 149.754 84.2217 149.755C84.2217 149.755 84.2212 149.756 84.2206 149.756C75.3996 149.898 68.2927 157.093 68.2927 165.948C68.2927 174.803 75.3996 181.998 84.2206 182.14C84.2212 182.14 84.2217 182.141 84.2217 182.142C84.2217 182.142 84.2222 182.143 84.2228 182.143H84.4872H97.3917C99.2087 182.143 100.682 180.67 100.682 178.853V165.948L100.682 153.043C100.682 151.226 99.2087 149.754 97.3917 149.754H84.4872Z" fill="#FF3044"/>
<path fill-rule="evenodd" clip-rule="evenodd" d="M150.849 186.848C138.679 186.848 128.814 176.983 128.814 164.813C128.814 161.686 129.465 158.71 130.64 156.016C131.793 153.371 130.083 149.682 127.198 149.682H108.206C106.389 149.682 104.917 151.154 104.917 152.97L104.917 213.826C104.917 215.642 106.389 217.115 108.206 217.115H129.481C130.407 217.115 131.289 216.725 131.913 216.04L153.782 192.023C155.2 190.465 152.956 186.848 150.849 186.848ZM117.436 206.066C119.253 206.066 120.725 204.594 120.725 202.777V196.966C120.725 195.15 119.253 193.678 117.436 193.678H108.208C106.391 193.678 104.919 195.15 104.919 196.966V202.777C104.919 204.594 106.391 206.066 108.208 206.066H117.436Z" fill="#FF3044"/>
<path d="M348.023 6.08594C349.84 6.08594 351.312 7.55888 351.312 9.37585V33.5922C351.312 35.4092 349.84 36.8821 348.023 36.8821L304.181 36.8821C301.306 36.8821 299.814 33.4544 301.773 31.3504L324.319 7.13405C324.942 6.4656 325.814 6.08594 326.727 6.08594L348.023 6.08594Z" fill="#FF3044"/>
<path d="M173.544 36.8809C171.727 36.8809 170.254 35.4079 170.254 33.5909V9.37459C170.254 7.55762 171.727 6.08468 173.544 6.08468L217.385 6.08468C220.26 6.08468 221.752 9.51241 219.793 11.6164L197.247 35.8327C196.625 36.5012 195.753 36.8809 194.839 36.8809L173.544 36.8809Z" fill="#FF3044"/>
<path d="M97.4015 73.5811C99.2185 73.5811 100.691 72.1081 100.691 70.2911L100.691 46.0748C100.691 44.2578 99.2185 42.7849 97.4015 42.7849L53.56 42.7849C50.6853 42.7849 49.1932 46.2126 51.1521 48.3166L73.6982 72.5329C74.3206 73.2014 75.1928 73.5811 76.1061 73.5811H97.4015Z" fill="#FF3044"/>
<path d="M312.444 6.08594C315.316 6.08594 316.809 9.50943 314.855 11.6145L293.257 34.8735C292.692 35.482 292.378 36.2817 292.378 37.1121V52.7071C292.378 54.524 290.905 55.997 289.088 55.997L275.491 55.997C273.674 55.997 272.201 54.524 272.201 52.7071V9.37585C272.201 7.55888 273.674 6.08594 275.491 6.08594L312.444 6.08594Z" fill="#FF3044"/>
<rect x="292.373" y="60.2432" width="13.2742" height="20.1767" rx="3.28991" transform="rotate(90 292.373 60.2432)" fill="#FF3044"/>
<path fill-rule="evenodd" clip-rule="evenodd" d="M264.655 39.5272C266.472 39.5272 267.945 38.0542 267.945 36.2373V9.36609C267.945 7.54912 266.472 6.07617 264.655 6.07617L232.475 6.07617C230.658 6.07617 229.185 7.54911 229.185 9.36608V36.2373C229.185 38.0542 230.658 39.5272 232.475 39.5272L264.655 39.5272ZM248.717 39.5115C250.534 39.5115 252.007 38.0385 252.007 36.2215V23.1555C252.007 21.3386 250.534 19.8656 248.717 19.8656H248.394C246.577 19.8656 245.104 21.3386 245.104 23.1555V36.2215C245.104 38.0385 246.577 39.5115 248.394 39.5115H248.717Z" fill="#FF3044"/>
<path d="M261.963 52.3798C263.804 49.737 267.953 51.0394 267.953 54.26V70.2236C267.953 72.0406 266.48 73.5135 264.663 73.5135H253.546C250.888 73.5135 249.327 70.5246 250.846 68.3435L261.963 52.3798Z" fill="#FF3044"/>
<path d="M244.799 70.7228C243.71 72.2746 241.53 72.5898 240.231 71.2094C237.228 68.0176 234.737 63.9074 232.882 60.0676C230.997 56.1639 229.81 51.9427 229.369 47.6117C229.185 45.8058 230.649 44.3095 232.464 44.2808L257.239 43.8891C259.925 43.8466 261.527 46.8678 259.985 49.0675L244.799 70.7228Z" fill="#FF3044"/>
<path d="M219.243 16.4548C221.279 14.268 224.941 15.7087 224.941 18.6966V44.5824C224.941 44.5824 224.941 51.7505 229.189 61.1752C230.016 63.0112 230.965 64.6533 231.937 66.0941C233.719 68.7356 231.815 73.5202 228.629 73.5202L199.559 73.5202C197.742 73.5202 196.269 72.0473 196.269 70.2303V42.4256C196.269 41.5937 196.584 40.7926 197.151 40.1838L219.243 16.4548Z" fill="#FF3044"/>
<path fill-rule="evenodd" clip-rule="evenodd" d="M311.762 53.8811C313.372 53.8811 314.678 52.5754 314.678 50.9648V44.4315C314.678 42.6145 313.205 41.1416 311.388 41.1416L299.915 41.1416C298.098 41.1416 296.625 42.6145 296.625 44.4315V70.2408C296.625 72.0577 298.098 73.5307 299.915 73.5307H311.388C313.205 73.5307 314.678 72.0577 314.678 70.2408V63.6999C314.678 62.0893 313.372 60.7836 311.762 60.7836C310.151 60.7836 308.845 59.478 308.845 57.8674V56.7973C308.845 55.1867 310.151 53.8811 311.762 53.8811Z" fill="#FF3044"/>
<path d="M188.739 41.1299C190.556 41.1299 192.029 42.6028 192.029 44.4198V70.229C192.029 72.046 190.556 73.519 188.739 73.519L142.758 73.519C139.886 73.519 138.393 70.0962 140.347 67.991L164.301 42.1817C164.924 41.511 165.797 41.1299 166.712 41.1299L188.739 41.1299Z" fill="#FF3044"/>
<path fill-rule="evenodd" clip-rule="evenodd" d="M335.12 73.5307H334.856C334.855 73.5307 334.855 73.5302 334.855 73.5296C334.855 73.529 334.854 73.5285 334.853 73.5285C326.032 73.3862 318.926 66.1911 318.926 57.3361C318.926 48.4812 326.032 41.2861 334.853 41.1438C334.854 41.1437 334.855 41.1433 334.855 41.1427C334.855 41.1421 334.855 41.1416 334.856 41.1416H335.12L348.025 41.1416C349.842 41.1416 351.314 42.6145 351.314 44.4315V57.3361V70.2408C351.314 72.0577 349.842 73.5307 348.025 73.5307H335.12Z" fill="#FF3044"/>
<path d="M61.811 73.5732C64.6836 73.5732 66.1765 70.1497 64.2218 68.0447L42.6241 44.7857C42.0591 44.1772 41.745 43.3775 41.745 42.5471L41.745 26.9521C41.745 25.1351 40.2721 23.6622 38.4551 23.6622L24.8582 23.6622C23.0413 23.6622 21.5683 25.1352 21.5683 26.9521L21.5683 70.2833C21.5683 72.1003 23.0413 73.5732 24.8582 73.5732L61.811 73.5732Z" fill="#FF3044"/>
<rect width="13.2742" height="20.1767" rx="3.28991" transform="matrix(0 -1 -1 0 41.7559 19.4238)" fill="#FF3044"/>
<path fill-rule="evenodd" clip-rule="evenodd" d="M14.2238 39.5467C16.0407 39.5467 17.5137 38.0738 17.5137 36.2568L17.5137 9.38562C17.5137 7.56865 16.0407 6.0957 14.2238 6.0957L-18.1438 6.0957C-19.9608 6.0957 -21.4337 7.56864 -21.4337 9.38561L-21.4337 36.2568C-21.4337 38.0738 -19.9608 39.5467 -18.1438 39.5467L-8.80615 39.5467C-6.98918 39.5467 -5.51623 38.0738 -5.51623 36.2568L-5.51623 23.1915C-5.51623 21.3745 -4.04329 19.9016 -2.22632 19.9016H-1.90359C-0.0866184 19.9016 1.38633 21.3745 1.38633 23.1915L1.38633 36.2568C1.38633 38.0738 2.85927 39.5467 4.67624 39.5467L14.2238 39.5467Z" fill="#FF3044"/>
<path d="M11.3424 52.3896C13.183 49.7467 17.332 51.0491 17.332 54.2698L17.332 70.2334C17.332 72.0504 15.8591 73.5233 14.0421 73.5233H2.92465C0.266636 73.5233 -1.29411 70.5344 0.224926 68.3532L11.3424 52.3896Z" fill="#FF3044"/>
<path d="M-5.80498 70.7169C-6.89322 72.2688 -9.07353 72.5839 -10.3724 71.2036C-13.3758 68.0118 -15.8669 63.9015 -17.7211 60.0617C-19.6062 56.158 -20.7936 51.9368 -21.2346 47.6058C-21.4185 45.7999 -19.9548 44.3036 -18.1399 44.2749L6.63544 43.8832C9.32177 43.8407 10.9236 46.8619 9.38105 49.0616L-5.80498 70.7169Z" fill="#FF3044"/>
<path fill-rule="evenodd" clip-rule="evenodd" d="M60.7726 6.16268C62.5896 6.16268 64.0625 7.63563 64.0625 9.4526L64.0625 35.2618C64.0625 37.0788 62.5896 38.5518 60.7726 38.5518L49.2996 38.5518C47.4826 38.5518 46.0096 37.0788 46.0096 35.2618L46.0096 9.4526C46.0096 7.63563 47.4826 6.16268 49.2996 6.16268L60.7726 6.16268ZM61.134 18.9015C62.7468 18.9015 64.0543 20.209 64.0543 21.8218V22.8838C64.0543 24.4966 62.7468 25.8041 61.134 25.8041C59.5211 25.8041 58.2137 24.4966 58.2137 22.8838V21.8218C58.2137 20.209 59.5211 18.9015 61.134 18.9015Z" fill="#FF3044"/>
<ellipse cx="149.286" cy="22.8114" rx="16.7255" ry="16.7254" transform="rotate(90 149.286 22.8114)" fill="#FF3044"/>
<path fill-rule="evenodd" clip-rule="evenodd" d="M84.4969 6.15389H84.2325C84.2319 6.15389 84.2315 6.15437 84.2315 6.15497C84.2315 6.15556 84.231 6.15603 84.2304 6.15604C75.4094 6.29839 68.3025 13.4935 68.3025 22.3484C68.3025 31.2034 75.4094 38.3985 84.2304 38.5408C84.231 38.5408 84.2315 38.5413 84.2315 38.5419C84.2315 38.5425 84.2319 38.543 84.2325 38.543H84.4969L97.4015 38.543C99.2185 38.543 100.691 37.07 100.691 35.2531V22.3484L100.691 9.44381C100.691 7.62684 99.2185 6.15389 97.4015 6.15389L84.4969 6.15389Z" fill="#FF3044"/>
<path fill-rule="evenodd" clip-rule="evenodd" d="M150.855 43.2653C138.685 43.2653 128.819 33.3998 128.819 21.2301C128.819 18.1027 129.471 15.1275 130.646 12.4327C131.799 9.78775 130.089 6.09863 127.204 6.09863L108.211 6.09863C106.395 6.09863 104.923 7.57107 104.923 9.38742L104.923 70.2429C104.923 72.0592 106.395 73.5317 108.211 73.5317L129.487 73.5317C130.412 73.5317 131.295 73.1415 131.918 72.4571L153.787 48.4402C155.206 46.882 152.962 43.2653 150.855 43.2653ZM117.442 62.4843C119.258 62.4843 120.731 61.0119 120.731 59.1955V53.3845C120.731 51.5682 119.258 50.0957 117.442 50.0957L108.213 50.0957C106.397 50.0957 104.925 51.5682 104.925 53.3845V59.1955C104.925 61.0119 106.397 62.4843 108.213 62.4843L117.442 62.4843Z" fill="#FF3044"/>
</g>
<g clip-path="url(#clip2_4052_9369)">
<rect width="2256.98" height="231" transform="translate(-963.99 217)" fill="#E91B2F"/>
<path d="M21.6708 294.689C19.8538 294.689 18.3809 296.162 18.3809 297.979L18.3809 322.196C18.3809 324.013 19.8538 325.486 21.6708 325.486H65.5123C68.387 325.486 69.879 322.058 67.9202 319.954L45.374 295.738C44.7517 295.069 43.8795 294.689 42.9661 294.689H21.6708Z" fill="#FF3044"/>
<path d="M196.148 325.483C197.965 325.483 199.438 324.01 199.438 322.193V297.977C199.438 296.16 197.965 294.687 196.148 294.687H152.306C149.431 294.687 147.939 298.115 149.898 300.219L172.444 324.435C173.067 325.104 173.939 325.483 174.852 325.483H196.148Z" fill="#FF3044"/>
<path d="M57.2574 294.689C54.3847 294.689 52.8919 298.113 54.8466 300.218L76.4442 323.477C77.0093 324.086 77.3233 324.885 77.3233 325.716L77.3233 341.311C77.3233 343.128 78.7963 344.6 80.6132 344.6H94.2101C96.0271 344.6 97.5 343.128 97.5 341.311L97.5 297.979C97.5 296.162 96.0271 294.689 94.2101 294.689H57.2574Z" fill="#FF3044"/>
<rect width="13.2742" height="20.1767" rx="3.28991" transform="matrix(0 1 1 0 77.3125 348.846)" fill="#FF3044"/>
<path fill-rule="evenodd" clip-rule="evenodd" d="M104.827 328.747C103.01 328.747 101.537 330.22 101.537 332.037L101.537 358.908C101.537 360.725 103.01 362.198 104.827 362.198H137.195C139.012 362.198 140.484 360.725 140.484 358.908V332.037C140.484 330.22 139.012 328.747 137.195 328.747H104.827ZM120.954 328.755C119.137 328.755 117.664 330.228 117.664 332.045L117.664 345.111C117.664 346.928 119.137 348.401 120.954 348.401H121.277C123.094 348.401 124.567 346.928 124.567 345.111L124.567 332.045C124.567 330.228 123.094 328.755 121.277 328.755H120.954Z" fill="#FF3044"/>
<path d="M107.726 315.896C105.885 318.538 101.736 317.236 101.736 314.015L101.736 298.052C101.736 296.235 103.209 294.762 105.026 294.762H116.144C118.802 294.762 120.362 297.751 118.843 299.932L107.726 315.896Z" fill="#FF3044"/>
<path d="M124.862 297.56C125.95 296.009 128.13 295.693 129.429 297.074C132.432 300.266 134.924 304.376 136.778 308.216C138.663 312.119 139.85 316.341 140.291 320.672C140.475 322.477 139.011 323.974 137.196 324.002L112.421 324.394C109.735 324.437 108.133 321.415 109.676 319.216L124.862 297.56Z" fill="#FF3044"/>
<path d="M150.452 305.058C148.416 302.871 144.754 304.312 144.754 307.3V333.186L144.754 358.834C144.754 360.651 146.227 362.124 148.044 362.124H170.136C171.953 362.124 173.426 360.651 173.426 358.834L173.426 331.029C173.426 330.197 173.111 329.396 172.544 328.787L150.452 305.058Z" fill="#FF3044"/>
<path fill-rule="evenodd" clip-rule="evenodd" d="M58.3075 362.123C56.4905 362.123 55.0176 360.651 55.0176 358.834L55.0176 333.024C55.0176 331.207 56.4905 329.734 58.3075 329.734H69.7805C71.5975 329.734 73.0704 331.207 73.0704 333.024V358.834C73.0704 360.651 71.5975 362.123 69.7805 362.123H58.3075ZM57.942 349.385C56.3291 349.385 55.0217 348.077 55.0217 346.464V345.402C55.0217 343.79 56.3291 342.482 57.942 342.482C59.5548 342.482 60.8623 343.79 60.8623 345.402V346.464C60.8623 348.077 59.5548 349.385 57.942 349.385Z" fill="#FF3044"/>
<path fill-rule="evenodd" clip-rule="evenodd" d="M34.5675 362.123H34.8319C34.8325 362.123 34.833 362.123 34.833 362.122C34.833 362.122 34.8335 362.121 34.8341 362.121C43.6551 361.979 50.762 354.784 50.762 345.929C50.762 337.074 43.6551 329.879 34.8341 329.737C34.8335 329.737 34.833 329.736 34.833 329.735C34.833 329.735 34.8325 329.734 34.8319 329.734H34.5675H21.663C19.846 329.734 18.373 331.207 18.373 333.024L18.373 345.929L18.373 358.834C18.373 360.651 19.846 362.123 21.663 362.123H34.5675Z" fill="#FF3044"/>
<path fill-rule="evenodd" clip-rule="evenodd" d="M192.165 329.746C183.338 329.881 176.225 337.079 176.225 345.938C176.225 354.797 183.338 361.995 192.165 362.131V362.133H192.419H199.457V329.744H192.419H192.165V329.746Z" fill="#FF3044"/>
<path fill-rule="evenodd" clip-rule="evenodd" d="M-31.7784 325.011C-19.6088 325.011 -9.74331 334.877 -9.74331 347.046C-9.74331 350.174 -10.3948 353.149 -11.5696 355.844C-12.7226 358.489 -11.0127 362.178 -8.12739 362.178H10.8647C12.6811 362.178 14.1535 360.705 14.1535 358.889L14.1535 321.479C14.1535 319.662 12.6811 318.19 10.8647 318.19H1.64621C-0.170139 318.19 -1.64259 316.718 -1.64259 314.901V309.09C-1.64259 307.274 -0.170143 305.801 1.64621 305.801H10.8647C12.6811 305.801 14.1535 304.329 14.1535 302.513L14.1535 298.034C14.1535 296.217 12.6811 294.745 10.8647 294.745H-10.4106C-11.3362 294.745 -12.2191 295.135 -12.8423 295.819L-34.7112 319.836C-36.13 321.394 -33.8858 325.011 -31.7784 325.011Z" fill="#FF3044"/>
<path d="M206.936 362.201C205.119 362.201 203.646 360.728 203.646 358.911V334.695C203.646 332.878 205.119 331.405 206.936 331.405H250.778C253.653 331.405 255.145 334.833 253.186 336.937L230.64 361.153C230.017 361.822 229.145 362.201 228.232 362.201H206.936Z" fill="#FF3044"/>
<path d="M242.509 362.185C239.637 362.185 238.144 358.761 240.099 356.656L261.696 333.397C262.261 332.789 262.575 331.989 262.575 331.158V315.563C262.575 313.746 264.048 312.274 265.865 312.274H279.462C281.279 312.274 282.752 313.746 282.752 315.563V358.895C282.752 360.712 281.279 362.185 279.462 362.185H242.509Z" fill="#FF3044"/>
<rect x="262.586" y="308.027" width="13.2742" height="20.1767" rx="3.28991" transform="rotate(-90 262.586 308.027)" fill="#FF3044"/>
<path fill-rule="evenodd" clip-rule="evenodd" d="M290.298 328.75C288.481 328.75 287.008 330.223 287.008 332.04V358.911C287.008 360.728 288.481 362.201 290.298 362.201H322.478C324.295 362.201 325.768 360.728 325.768 358.911V332.04C325.768 330.223 324.295 328.75 322.478 328.75H290.298ZM306.232 328.758C304.415 328.758 302.942 330.231 302.942 332.048V345.114C302.942 346.931 304.415 348.404 306.232 348.404H306.555C308.372 348.404 309.845 346.931 309.845 345.114V332.048C309.845 330.231 308.372 328.758 306.555 328.758H306.232Z" fill="#FF3044"/>
<path d="M292.992 315.882C291.151 318.525 287.002 317.222 287.002 314.002V298.038C287.002 296.221 288.475 294.748 290.292 294.748H301.409C304.067 294.748 305.628 297.737 304.109 299.918L292.992 315.882Z" fill="#FF3044"/>
<path d="M310.145 297.547C311.233 295.995 313.413 295.68 314.712 297.06C317.716 300.252 320.207 304.362 322.061 308.202C323.946 312.106 325.133 316.327 325.574 320.658C325.758 322.464 324.295 323.96 322.48 323.989L297.704 324.38C295.018 324.423 293.416 321.402 294.959 319.202L310.145 297.547Z" fill="#FF3044"/>
<path d="M335.712 351.816C333.676 354.003 330.014 352.562 330.014 349.574V323.688C330.014 323.688 330.014 316.52 325.766 307.095C324.939 305.259 323.99 303.617 323.018 302.176C321.236 299.535 323.14 294.75 326.326 294.75H355.396C357.213 294.75 358.686 296.223 358.686 298.04V325.845C358.686 326.677 358.371 327.478 357.804 328.087L335.712 351.816Z" fill="#FF3044"/>
<path fill-rule="evenodd" clip-rule="evenodd" d="M243.197 314.396C241.587 314.396 240.281 315.702 240.281 317.312V323.854C240.281 325.671 241.754 327.144 243.571 327.144H255.044C256.861 327.144 258.334 325.671 258.334 323.854V298.044C258.334 296.227 256.861 294.754 255.044 294.754H243.571C241.754 294.754 240.281 296.227 240.281 298.044V304.577C240.281 306.188 241.587 307.493 243.197 307.493C244.808 307.493 246.114 308.799 246.114 310.41V311.48C246.114 313.09 244.808 314.396 243.197 314.396Z" fill="#FF3044"/>
<path fill-rule="evenodd" clip-rule="evenodd" d="M219.833 294.754H220.098C220.098 294.754 220.099 294.755 220.099 294.756C220.099 294.756 220.099 294.757 220.1 294.757C228.921 294.899 236.028 302.094 236.028 310.949C236.028 319.804 228.921 326.999 220.1 327.141C220.099 327.141 220.099 327.142 220.099 327.142C220.099 327.143 220.098 327.144 220.098 327.144H219.833H206.929C205.112 327.144 203.639 325.671 203.639 323.854V310.949V298.044C203.639 296.227 205.112 294.754 206.929 294.754H219.833Z" fill="#FF3044"/>
<path d="M21.6591 438.279C19.8421 438.279 18.3691 439.752 18.3691 441.569L18.3691 465.786C18.3691 467.603 19.8421 469.075 21.6591 469.075H65.5006C68.3753 469.075 69.8673 465.648 67.9084 463.544L45.3623 439.327C44.74 438.659 43.8677 438.279 42.9544 438.279H21.6591Z" fill="#FF3044"/>
<path d="M196.138 469.073C197.955 469.073 199.428 467.6 199.428 465.783V441.567C199.428 439.75 197.955 438.277 196.138 438.277H152.296C149.422 438.277 147.93 441.705 149.888 443.809L172.435 468.025C173.057 468.694 173.929 469.073 174.842 469.073H196.138Z" fill="#FF3044"/>
<path d="M57.2457 438.271C54.373 438.271 52.8801 441.694 54.8348 443.799L76.4325 467.058C76.9976 467.667 77.3116 468.466 77.3116 469.297L77.3116 484.892C77.3116 486.709 78.7845 488.182 80.6015 488.182H94.1984C96.0154 488.182 97.4883 486.709 97.4883 484.892L97.4883 441.56C97.4883 439.743 96.0154 438.271 94.1984 438.271H57.2457Z" fill="#FF3044"/>
<path d="M107.72 459.471C105.88 462.114 101.73 460.811 101.73 457.591L101.73 441.627C101.73 439.81 103.203 438.337 105.02 438.337H116.138C118.796 438.337 120.357 441.326 118.838 443.507L107.72 459.471Z" fill="#FF3044"/>
<path d="M124.858 441.136C125.946 439.584 128.126 439.269 129.425 440.649C132.429 443.841 134.92 447.951 136.774 451.791C138.659 455.695 139.846 459.916 140.287 464.247C140.471 466.053 139.008 467.549 137.193 467.578L112.417 467.969C109.731 468.012 108.129 464.991 109.672 462.791L124.858 441.136Z" fill="#FF3044"/>
<path fill-rule="evenodd" clip-rule="evenodd" d="M-31.7999 468.595C-19.6302 468.595 -9.76479 478.461 -9.76479 490.63C-9.76479 493.758 -10.4163 496.733 -11.591 499.428C-12.7441 502.073 -11.0342 505.762 -8.14888 505.762H10.8432C12.6596 505.762 14.132 504.289 14.132 502.473L14.132 465.053C14.132 463.237 12.6596 461.765 10.8432 461.765H1.6175C-0.198845 461.765 -1.67129 460.292 -1.67129 458.476V452.665C-1.67129 450.848 -0.198849 449.376 1.6175 449.376H10.8432C12.6596 449.376 14.132 447.904 14.132 446.087L14.132 441.617C14.132 439.801 12.6596 438.329 10.8432 438.329H-10.432C-11.3577 438.329 -12.2405 438.719 -12.8638 439.403L-34.7327 463.42C-36.1515 464.978 -33.9072 468.595 -31.7999 468.595Z" fill="#FF3044"/>
<rect x="262.578" y="451.617" width="13.2742" height="20.1767" rx="3.28991" transform="rotate(-90 262.578 451.617)" fill="#FF3044"/>
<path d="M292.98 459.473C291.139 462.116 286.99 460.813 286.99 457.593V441.629C286.99 439.812 288.463 438.339 290.28 438.339H301.398C304.056 438.339 305.616 441.328 304.097 443.509L292.98 459.473Z" fill="#FF3044"/>
<path d="M310.137 441.138C311.225 439.586 313.406 439.271 314.704 440.651C317.708 443.843 320.199 447.953 322.053 451.793C323.938 455.696 325.126 459.918 325.567 464.249C325.751 466.055 324.287 467.551 322.472 467.58L297.697 467.971C295.01 468.014 293.408 464.993 294.951 462.793L310.137 441.138Z" fill="#FF3044"/>
<path d="M335.704 495.406C333.668 497.592 330.006 496.152 330.006 493.164V467.278C330.006 467.278 330.006 460.11 325.759 450.685C324.931 448.849 323.982 447.207 323.01 445.766C321.228 443.125 323.132 438.34 326.319 438.34H355.389C357.206 438.34 358.678 439.813 358.678 441.63V469.435C358.678 470.267 358.363 471.068 357.796 471.677L335.704 495.406Z" fill="#FF3044"/>
<path fill-rule="evenodd" clip-rule="evenodd" d="M243.19 457.98C241.579 457.98 240.273 459.286 240.273 460.896V467.438C240.273 469.255 241.746 470.728 243.563 470.728H255.036C256.853 470.728 258.326 469.255 258.326 467.438V441.628C258.326 439.811 256.853 438.338 255.036 438.338H243.563C241.746 438.338 240.273 439.811 240.273 441.628V448.161C240.273 449.772 241.579 451.077 243.19 451.077C244.8 451.077 246.106 452.383 246.106 453.994V455.064C246.106 456.674 244.8 457.98 243.19 457.98Z" fill="#FF3044"/>
<path fill-rule="evenodd" clip-rule="evenodd" d="M219.843 438.338H220.107C220.108 438.338 220.108 438.339 220.108 438.34C220.108 438.34 220.109 438.341 220.109 438.341C228.93 438.483 236.037 445.678 236.037 454.533C236.037 463.388 228.93 470.583 220.109 470.725C220.109 470.725 220.108 470.726 220.108 470.726C220.108 470.727 220.108 470.728 220.107 470.728H219.843H206.938C205.121 470.728 203.648 469.255 203.648 467.438V454.533V441.628C203.648 439.811 205.121 438.338 206.938 438.338H219.843Z" fill="#FF3044"/>
<path d="M-19.0206 290.325C-20.8376 290.325 -22.3105 288.852 -22.3105 287.035L-22.3105 262.819C-22.3105 261.002 -20.8376 259.529 -19.0206 259.529H24.8209C27.6956 259.529 29.1876 262.957 27.2288 265.061L4.68262 289.277C4.06027 289.946 3.18805 290.325 2.27474 290.325H-19.0206Z" fill="#FF3044"/>
<path d="M155.454 259.53C157.271 259.53 158.744 261.003 158.744 262.82V287.037C158.744 288.854 157.271 290.326 155.454 290.326H111.613C108.738 290.326 107.246 286.899 109.205 284.795L131.751 260.578C132.373 259.91 133.246 259.53 134.159 259.53H155.454Z" fill="#FF3044"/>
<path d="M231.597 222.83C229.78 222.83 228.307 224.303 228.307 226.12V250.336C228.307 252.153 229.78 253.626 231.597 253.626H275.438C278.313 253.626 279.805 250.199 277.846 248.095L255.3 223.878C254.677 223.21 253.805 222.83 252.892 222.83H231.597Z" fill="#FF3044"/>
<path d="M16.5582 290.325C13.6855 290.325 12.1926 286.902 14.1473 284.797L35.745 261.538C36.3101 260.929 36.6241 260.129 36.6241 259.299L36.6241 243.704C36.6241 241.887 38.097 240.414 39.914 240.414H53.5109C55.3279 240.414 56.8008 241.887 56.8008 243.704L56.8008 287.035C56.8008 288.852 55.3279 290.325 53.5109 290.325H16.5582Z" fill="#FF3044"/>
<rect x="36.625" y="236.168" width="13.2742" height="20.1767" rx="3.28991" transform="rotate(-90 36.625 236.168)" fill="#FF3044"/>
<path fill-rule="evenodd" clip-rule="evenodd" d="M64.3446 256.891C62.5276 256.891 61.0547 258.364 61.0547 260.181L61.0547 287.052C61.0547 288.869 62.5276 290.342 64.3446 290.342H96.5253C98.3423 290.342 99.8152 288.869 99.8152 287.052V260.181C99.8152 258.364 98.3423 256.891 96.5253 256.891H64.3446ZM80.2833 256.898C78.4663 256.898 76.9934 258.371 76.9934 260.188L76.9934 273.254C76.9934 275.071 78.4663 276.544 80.2833 276.544H80.606C82.423 276.544 83.8959 275.071 83.8959 273.254V260.188C83.8959 258.371 82.423 256.898 80.606 256.898H80.2833Z" fill="#FF3044"/>
<path d="M67.0443 244.022C65.2038 246.665 61.0547 245.363 61.0547 242.142L61.0547 226.179C61.0547 224.362 62.5276 222.889 64.3446 222.889H75.4621C78.1201 222.889 79.6808 225.878 78.1618 228.059L67.0443 244.022Z" fill="#FF3044"/>
<path d="M84.1995 225.696C85.2877 224.144 87.4681 223.829 88.7669 225.209C91.7704 228.401 94.2614 232.512 96.1156 236.351C98.0007 240.255 99.1882 244.476 99.6292 248.807C99.8131 250.613 98.3494 252.109 96.5344 252.138L71.7591 252.53C69.0728 252.572 67.4709 249.551 69.0135 247.351L84.1995 225.696Z" fill="#FF3044"/>
<path d="M109.769 279.956C107.732 282.143 104.071 280.702 104.071 277.714L104.071 251.829C104.071 251.829 104.071 244.661 99.823 235.236C98.9955 233.4 98.0464 231.758 97.0746 230.317C95.2929 227.675 97.1968 222.891 100.383 222.891H129.453C131.27 222.891 132.743 224.364 132.743 226.181V253.986C132.743 254.817 132.428 255.619 131.861 256.227L109.769 279.956Z" fill="#FF3044"/>
<path fill-rule="evenodd" clip-rule="evenodd" d="M17.2385 242.537C15.6279 242.537 14.3223 243.842 14.3223 245.453L14.3223 251.994C14.3223 253.811 15.7952 255.284 17.6122 255.284H29.0852C30.9022 255.284 32.3751 253.811 32.3751 251.994L32.3751 226.185C32.3751 224.368 30.9022 222.895 29.0852 222.895H17.6122C15.7952 222.895 14.3223 224.368 14.3223 226.185L14.3223 232.718C14.3223 234.328 15.6279 235.634 17.2385 235.634C18.8491 235.634 20.1547 236.94 20.1547 238.55V239.62C20.1547 241.231 18.8491 242.537 17.2385 242.537Z" fill="#FF3044"/>
<path d="M140.272 255.281C138.455 255.281 136.982 253.808 136.982 251.991V226.182C136.982 224.365 138.455 222.892 140.272 222.892H186.254C189.126 222.892 190.619 226.315 188.665 228.42L164.711 254.229C164.088 254.9 163.214 255.281 162.299 255.281H140.272Z" fill="#FF3044"/>
<path fill-rule="evenodd" clip-rule="evenodd" d="M-6.11217 222.895H-5.84777C-5.84717 222.895 -5.84669 222.896 -5.84669 222.896C-5.84669 222.897 -5.84622 222.897 -5.84563 222.897C2.97539 223.04 10.0823 230.235 10.0823 239.09C10.0823 247.945 2.97539 255.14 -5.84563 255.282C-5.84622 255.282 -5.84669 255.283 -5.84669 255.283C-5.84669 255.284 -5.84717 255.284 -5.84777 255.284H-6.11217H-19.0167C-20.8337 255.284 -22.3066 253.811 -22.3066 251.994L-22.3066 239.09L-22.3066 226.185C-22.3066 224.368 -20.8337 222.895 -19.0167 222.895H-6.11217Z" fill="#FF3044"/>
<path d="M267.187 222.83C264.314 222.83 262.822 226.254 264.776 228.359L286.374 251.618C286.939 252.226 287.253 253.026 287.253 253.856V269.451C287.253 271.268 288.726 272.741 290.543 272.741H304.14C305.957 272.741 307.43 271.268 307.43 269.451V226.12C307.43 224.303 305.957 222.83 304.14 222.83H267.187Z" fill="#FF3044"/>
<rect width="13.2742" height="20.1767" rx="3.28991" transform="matrix(0 1 1 0 287.246 276.986)" fill="#FF3044"/>
<path fill-rule="evenodd" clip-rule="evenodd" d="M314.776 256.861C312.959 256.861 311.486 258.334 311.486 260.151V287.023C311.486 288.84 312.959 290.312 314.776 290.312H347.144C348.961 290.312 350.434 288.84 350.434 287.023V260.151C350.434 258.334 348.961 256.861 347.144 256.861H337.806C335.989 256.861 334.516 258.334 334.516 260.151V273.217C334.516 275.034 333.043 276.507 331.226 276.507H330.904C329.087 276.507 327.614 275.034 327.614 273.217V260.151C327.614 258.334 326.141 256.861 324.324 256.861H314.776Z" fill="#FF3044"/>
<path d="M317.658 244.012C315.817 246.655 311.668 245.352 311.668 242.132V226.168C311.668 224.351 313.141 222.878 314.958 222.878H326.075C328.733 222.878 330.294 225.867 328.775 228.048L317.658 244.012Z" fill="#FF3044"/>
<path d="M334.801 225.684C335.889 224.133 338.07 223.817 339.368 225.198C342.372 228.39 344.863 232.5 346.717 236.34C348.602 240.243 349.79 244.465 350.231 248.796C350.415 250.601 348.951 252.098 347.136 252.126L322.361 252.518C319.674 252.561 318.072 249.539 319.615 247.34L334.801 225.684Z" fill="#FF3044"/>
<path fill-rule="evenodd" clip-rule="evenodd" d="M268.239 290.246C266.422 290.246 264.949 288.774 264.949 286.957V261.147C264.949 259.33 266.422 257.857 268.239 257.857H279.712C281.529 257.857 283.002 259.33 283.002 261.147V286.957C283.002 288.774 281.529 290.246 279.712 290.246H268.239ZM267.878 277.508C266.265 277.508 264.957 276.2 264.957 274.587V273.525C264.957 271.913 266.265 270.605 267.878 270.605C269.491 270.605 270.798 271.913 270.798 273.525V274.587C270.798 276.2 269.491 277.508 267.878 277.508Z" fill="#FF3044"/>
<ellipse cx="179.712" cy="273.6" rx="16.7255" ry="16.7254" transform="rotate(-90 179.712 273.6)" fill="#FF3044"/>
<path fill-rule="evenodd" clip-rule="evenodd" d="M244.501 290.246H244.766C244.766 290.246 244.767 290.246 244.767 290.245C244.767 290.245 244.767 290.244 244.768 290.244C253.589 290.102 260.696 282.907 260.696 274.052C260.696 265.197 253.589 258.002 244.768 257.86C244.767 257.86 244.767 257.859 244.767 257.858C244.767 257.858 244.766 257.857 244.766 257.857H244.501H231.597C229.78 257.857 228.307 259.33 228.307 261.147V274.052V286.957C228.307 288.774 229.78 290.246 231.597 290.246H244.501Z" fill="#FF3044"/>
<path fill-rule="evenodd" clip-rule="evenodd" d="M178.14 253.152C190.309 253.152 200.175 263.017 200.175 275.187C200.175 278.314 199.523 281.29 198.348 283.984C197.195 286.629 198.905 290.318 201.791 290.318H220.783C222.599 290.318 224.071 288.846 224.071 287.03L224.071 226.174C224.071 224.358 222.599 222.885 220.783 222.885H199.507C198.582 222.885 197.699 223.275 197.076 223.96L175.207 247.977C173.788 249.535 176.032 253.152 178.14 253.152ZM211.552 233.934C209.736 233.934 208.263 235.406 208.263 237.223V243.034C208.263 244.85 209.736 246.322 211.552 246.322H220.781C222.597 246.322 224.069 244.85 224.069 243.034V237.223C224.069 235.406 222.597 233.934 220.781 233.934H211.552Z" fill="#FF3044"/>
<path d="M-19.0343 433.914C-20.8513 433.914 -22.3242 432.441 -22.3242 430.624L-22.3242 406.408C-22.3242 404.591 -20.8513 403.118 -19.0343 403.118H24.8072C27.6819 403.118 29.174 406.546 27.2151 408.65L4.66894 432.866C4.04659 433.534 3.17438 433.914 2.26107 433.914H-19.0343Z" fill="#FF3044"/>
<path d="M155.444 403.119C157.261 403.119 158.734 404.592 158.734 406.409V430.625C158.734 432.442 157.261 433.915 155.444 433.915H111.603C108.728 433.915 107.236 430.488 109.195 428.384L131.741 404.167C132.364 403.499 133.236 403.119 134.149 403.119H155.444Z" fill="#FF3044"/>
<path d="M231.587 366.419C229.77 366.419 228.297 367.892 228.297 369.709V393.925C228.297 395.742 229.77 397.215 231.587 397.215H275.428C278.303 397.215 279.795 393.787 277.836 391.683L255.29 367.467C254.668 366.799 253.795 366.419 252.882 366.419H231.587Z" fill="#FF3044"/>
<path d="M16.5445 433.914C13.6719 433.914 12.179 430.491 14.1337 428.386L35.7313 405.127C36.2964 404.518 36.6104 403.718 36.6104 402.888L36.6104 387.293C36.6104 385.476 38.0834 384.003 39.9003 384.003H53.4972C55.3142 384.003 56.7871 385.476 56.7871 387.293L56.7871 430.624C56.7871 432.441 55.3142 433.914 53.4972 433.914H16.5445Z" fill="#FF3044"/>
<rect x="36.6152" y="379.757" width="13.2742" height="20.1767" rx="3.28991" transform="rotate(-90 36.6152 379.757)" fill="#FF3044"/>
<path fill-rule="evenodd" clip-rule="evenodd" d="M64.3329 400.473C62.5159 400.473 61.043 401.946 61.043 403.763L61.043 430.634C61.043 432.451 62.5159 433.924 64.3329 433.924H96.5136C98.3305 433.924 99.8035 432.451 99.8035 430.634V403.763C99.8035 401.946 98.3305 400.473 96.5136 400.473H64.3329ZM80.2716 400.489C78.4546 400.489 76.9816 401.961 76.9816 403.778L76.9816 416.844C76.9816 418.661 78.4546 420.134 80.2716 420.134H80.5943C82.4113 420.134 83.8842 418.661 83.8842 416.844V403.778C83.8842 401.961 82.4113 400.489 80.5943 400.489H80.2716Z" fill="#FF3044"/>
<path d="M67.0248 387.62C65.1842 390.263 61.0352 388.961 61.0352 385.74L61.0352 369.776C61.0352 367.959 62.5081 366.486 64.3251 366.486H75.4425C78.1006 366.486 79.6613 369.475 78.1423 371.657L67.0248 387.62Z" fill="#FF3044"/>
<path d="M84.1897 369.277C85.278 367.725 87.4583 367.41 88.7572 368.791C91.7606 371.982 94.2516 376.093 96.1059 379.932C97.9909 383.836 99.1784 388.057 99.6194 392.388C99.8033 394.194 98.3396 395.691 96.5246 395.719L71.7493 396.111C69.063 396.153 67.4611 393.132 69.0037 390.933L84.1897 369.277Z" fill="#FF3044"/>
<path d="M109.745 423.545C107.709 425.732 104.047 424.291 104.047 421.303L104.047 395.418C104.047 395.418 104.047 388.249 99.7996 378.825C98.9721 376.989 98.023 375.347 97.0512 373.906C95.2695 371.264 97.1733 366.48 100.36 366.48H129.43C131.247 366.48 132.719 367.953 132.719 369.77V397.574C132.719 398.406 132.404 399.207 131.837 399.816L109.745 423.545Z" fill="#FF3044"/>
<path fill-rule="evenodd" clip-rule="evenodd" d="M17.2268 386.119C15.6162 386.119 14.3105 387.425 14.3105 389.035L14.3105 395.568C14.3105 397.385 15.7835 398.858 17.6005 398.858H29.0735C30.8905 398.858 32.3634 397.385 32.3634 395.568L32.3634 369.759C32.3634 367.942 30.8905 366.469 29.0735 366.469H17.6005C15.7835 366.469 14.3105 367.942 14.3105 369.759L14.3105 376.3C14.3105 377.911 15.6162 379.216 17.2268 379.216C18.8373 379.216 20.143 380.522 20.143 382.133V383.203C20.143 384.813 18.8373 386.119 17.2268 386.119Z" fill="#FF3044"/>
<path d="M140.249 398.87C138.432 398.87 136.959 397.397 136.959 395.58V369.771C136.959 367.954 138.432 366.481 140.249 366.481H186.23C189.103 366.481 190.596 369.904 188.642 372.009L164.687 397.818C164.065 398.489 163.191 398.87 162.276 398.87H140.249Z" fill="#FF3044"/>
<path fill-rule="evenodd" clip-rule="evenodd" d="M-6.13171 366.469H-5.8673C-5.8667 366.469 -5.86622 366.47 -5.86622 366.47C-5.86622 366.471 -5.86575 366.471 -5.86516 366.471C2.95586 366.614 10.0628 373.809 10.0628 382.664C10.0628 391.519 2.95586 398.714 -5.86516 398.856C-5.86575 398.856 -5.86622 398.857 -5.86622 398.857C-5.86622 398.858 -5.8667 398.858 -5.8673 398.858H-6.13171H-19.0363C-20.8532 398.858 -22.3262 397.385 -22.3262 395.568L-22.3262 382.664L-22.3262 369.759C-22.3262 367.942 -20.8532 366.469 -19.0363 366.469H-6.13171Z" fill="#FF3044"/>
<path d="M267.177 366.427C264.305 366.427 262.812 369.85 264.766 371.955L286.364 395.214C286.929 395.823 287.243 396.622 287.243 397.453V413.048C287.243 414.865 288.716 416.338 290.533 416.338H304.13C305.947 416.338 307.42 414.865 307.42 413.048V369.717C307.42 367.9 305.947 366.427 304.13 366.427H267.177Z" fill="#FF3044"/>
<rect width="13.2742" height="20.1767" rx="3.28991" transform="matrix(0 1 1 0 287.232 420.576)" fill="#FF3044"/>
<path fill-rule="evenodd" clip-rule="evenodd" d="M314.765 400.453C312.948 400.453 311.475 401.926 311.475 403.743V430.614C311.475 432.431 312.948 433.904 314.765 433.904H347.132C348.949 433.904 350.422 432.431 350.422 430.614V403.743C350.422 401.926 348.949 400.453 347.132 400.453H337.794C335.977 400.453 334.505 401.926 334.505 403.743V416.809C334.505 418.625 333.032 420.098 331.215 420.098H330.892C329.075 420.098 327.602 418.625 327.602 416.809V403.743C327.602 401.926 326.129 400.453 324.312 400.453H314.765Z" fill="#FF3044"/>
<path d="M317.646 387.61C315.805 390.253 311.656 388.951 311.656 385.73V369.767C311.656 367.95 313.129 366.477 314.946 366.477H326.064C328.722 366.477 330.282 369.466 328.763 371.647L317.646 387.61Z" fill="#FF3044"/>
<path d="M334.793 369.283C335.881 367.731 338.062 367.416 339.361 368.796C342.364 371.988 344.855 376.098 346.709 379.938C348.594 383.842 349.782 388.063 350.223 392.394C350.407 394.2 348.943 395.696 347.128 395.725L322.353 396.117C319.667 396.159 318.065 393.138 319.607 390.938L334.793 369.283Z" fill="#FF3044"/>
<path fill-rule="evenodd" clip-rule="evenodd" d="M268.216 433.837C266.399 433.837 264.926 432.364 264.926 430.547V404.738C264.926 402.921 266.399 401.448 268.216 401.448H279.689C281.506 401.448 282.979 402.921 282.979 404.738V430.547C282.979 432.364 281.506 433.837 279.689 433.837H268.216ZM267.854 421.098C266.241 421.098 264.934 419.791 264.934 418.178V417.116C264.934 415.503 266.241 414.196 267.854 414.196C269.467 414.196 270.775 415.503 270.775 417.116V418.178C270.775 419.791 269.467 421.098 267.854 421.098Z" fill="#FF3044"/>
<ellipse cx="179.702" cy="417.189" rx="16.7255" ry="16.7254" transform="rotate(-90 179.702 417.189)" fill="#FF3044"/>
<path fill-rule="evenodd" clip-rule="evenodd" d="M244.491 433.846H244.756C244.756 433.846 244.757 433.846 244.757 433.845C244.757 433.844 244.757 433.844 244.758 433.844C253.579 433.702 260.686 426.507 260.686 417.652C260.686 408.797 253.579 401.602 244.758 401.459C244.757 401.459 244.757 401.459 244.757 401.458C244.757 401.458 244.756 401.457 244.756 401.457H244.491H231.587C229.77 401.457 228.297 402.93 228.297 404.747V417.652V430.556C228.297 432.373 229.77 433.846 231.587 433.846H244.491Z" fill="#FF3044"/>
<path fill-rule="evenodd" clip-rule="evenodd" d="M178.134 396.735C190.303 396.735 200.169 406.6 200.169 418.77C200.169 421.897 199.517 424.873 198.343 427.567C197.19 430.212 198.899 433.901 201.785 433.901H220.777C222.593 433.901 224.066 432.429 224.066 430.613L224.066 369.757C224.066 367.941 222.593 366.468 220.777 366.468H199.502C198.576 366.468 197.693 366.858 197.07 367.543L175.201 391.56C173.782 393.118 176.026 396.735 178.134 396.735ZM211.546 377.516C209.73 377.516 208.258 378.988 208.258 380.804V386.615C208.258 388.432 209.73 389.904 211.546 389.904H220.775C222.591 389.904 224.064 388.432 224.064 386.615V380.804C224.064 378.988 222.591 377.516 220.775 377.516H211.546Z" fill="#FF3044"/>
</g>
</g>
<defs>
<clipPath id="clip0_4052_9369">
<rect width="329" height="440" rx="40" fill="white"/>
</clipPath>
<clipPath id="clip1_4052_9369">
<rect width="2256.98" height="231" fill="white" transform="matrix(-1 0 0 -1 1292.98 223)"/>
</clipPath>
<clipPath id="clip2_4052_9369">
<rect width="2256.98" height="231" fill="white" transform="translate(-963.99 217)"/>
</clipPath>
</defs>
</svg>
