<svg width="656" height="712" viewBox="0 0 656 712" fill="none" xmlns="http://www.w3.org/2000/svg" preserveAspectRatio="none">
<mask id="path-1-inside-1_22_31" fill="white">
<path d="M642 18H656V696H642V712H15V696H0V18H15V0H642V18Z"/>
</mask>
<path d="M642 18H656V696H642V712H15V696H0V18H15V0H642V18Z" fill="black"/>
<path d="M642 18H638V22H642V18ZM656 18H660V14H656V18ZM656 696V700H660V696H656ZM642 696V692H638V696H642ZM642 712V716H646V712H642ZM15 712H11V716H15V712ZM15 696H19V692H15V696ZM0 696H-4V700H0V696ZM0 18V14H-4V18H0ZM15 18V22H19V18H15ZM15 0V-4H11V0H15ZM642 0H646V-4H642V0ZM642 18V22H656V18V14H642V18ZM656 18H652V696H656H660V18H656ZM656 696V692H642V696V700H656V696ZM642 696H638V712H642H646V696H642ZM642 712V708H15V712V716H642V712ZM15 712H19V696H15H11V712H15ZM15 696V692H0V696V700H15V696ZM0 696H4V18H0H-4V696H0ZM0 18V22H15V18V14H0V18ZM15 18H19V0H15H11V18H15ZM15 0V4H642V0V-4H15V0ZM642 0H638V18H642H646V0H642Z" fill="white" fill-opacity="0.86" mask="url(#path-1-inside-1_22_31)"/>
</svg>
