<svg width="449" height="146" viewBox="0 0 449 146" fill="none" xmlns="http://www.w3.org/2000/svg">
<path d="M4 140.081C44.3333 93.7481 125.7 1.88147 128.5 5.08147C131.3 8.28147 253.667 96.4148 314.5 140.081L445.5 5.08147" stroke="white" stroke-width="9"/>
<g filter="url(#filter0_d_4_24)">
<mask id="path-2-outside-1_4_24" maskUnits="userSpaceOnUse" x="32" y="35" width="403" height="76" fill="black">
<rect fill="white" x="32" y="35" width="403" height="76"/>
<path d="M47.304 104.056V95.896H38.856V41.752H51.048V91H72.744V41.752H85.032V95.896H76.488V104.056H47.304ZM96.6998 104.056V58.168H134.332V66.424H142.876V104.056H130.588V71.224H108.892V104.056H96.6998ZM167.596 104.056V95.896H159.148V71.224H150.7V58.168H159.148V41.752H171.34V58.168H196.876V71.224H171.34V91H193.132V82.744H205.42V95.896H196.876V104.056H167.596ZM217.169 104.056V58.168H229.361V104.056H217.169ZM217.169 54.904V41.752H229.361V54.904H217.169ZM255.065 104.056V95.896H246.617V71.224H238.169V58.168H246.617V41.752H258.809V58.168H284.345V71.224H258.809V91H280.601V82.744H292.889V95.896H284.345V104.056H255.065ZM302.762 104.056V41.752H314.954V104.056H302.762ZM333.242 104.056V95.896H324.794V66.424H333.242V58.168H362.426V66.424H370.97V79.384H358.682V71.224H336.986V74.488H353.978V87.64H336.986V91H358.682V82.648H370.97V95.8H362.426V104.056H333.242ZM391.085 104.056V95.896H382.637V66.424H391.085V58.168H416.621V41.752H428.909V95.896H420.269V104.056H391.085ZM394.829 91H416.525V71.224H394.829V91Z"/>
</mask>
<path d="M47.304 104.056V95.896H38.856V41.752H51.048V91H72.744V41.752H85.032V95.896H76.488V104.056H47.304ZM96.6998 104.056V58.168H134.332V66.424H142.876V104.056H130.588V71.224H108.892V104.056H96.6998ZM167.596 104.056V95.896H159.148V71.224H150.7V58.168H159.148V41.752H171.34V58.168H196.876V71.224H171.34V91H193.132V82.744H205.42V95.896H196.876V104.056H167.596ZM217.169 104.056V58.168H229.361V104.056H217.169ZM217.169 54.904V41.752H229.361V54.904H217.169ZM255.065 104.056V95.896H246.617V71.224H238.169V58.168H246.617V41.752H258.809V58.168H284.345V71.224H258.809V91H280.601V82.744H292.889V95.896H284.345V104.056H255.065ZM302.762 104.056V41.752H314.954V104.056H302.762ZM333.242 104.056V95.896H324.794V66.424H333.242V58.168H362.426V66.424H370.97V79.384H358.682V71.224H336.986V74.488H353.978V87.64H336.986V91H358.682V82.648H370.97V95.8H362.426V104.056H333.242ZM391.085 104.056V95.896H382.637V66.424H391.085V58.168H416.621V41.752H428.909V95.896H420.269V104.056H391.085ZM394.829 91H416.525V71.224H394.829V91Z" fill="black"/>
<path d="M47.304 104.056H41.304V110.056H47.304V104.056ZM47.304 95.896H53.304V89.896H47.304V95.896ZM38.856 95.896H32.856V101.896H38.856V95.896ZM38.856 41.752V35.752H32.856V41.752H38.856ZM51.048 41.752H57.048V35.752H51.048V41.752ZM51.048 91H45.048V97H51.048V91ZM72.744 91V97H78.744V91H72.744ZM72.744 41.752V35.752H66.744V41.752H72.744ZM85.032 41.752H91.032V35.752H85.032V41.752ZM85.032 95.896V101.896H91.032V95.896H85.032ZM76.488 95.896V89.896H70.488V95.896H76.488ZM76.488 104.056V110.056H82.488V104.056H76.488ZM47.304 104.056H53.304V95.896H47.304H41.304V104.056H47.304ZM47.304 95.896V89.896H38.856V95.896V101.896H47.304V95.896ZM38.856 95.896H44.856V41.752H38.856H32.856V95.896H38.856ZM38.856 41.752V47.752H51.048V41.752V35.752H38.856V41.752ZM51.048 41.752H45.048V91H51.048H57.048V41.752H51.048ZM51.048 91V97H72.744V91V85H51.048V91ZM72.744 91H78.744V41.752H72.744H66.744V91H72.744ZM72.744 41.752V47.752H85.032V41.752V35.752H72.744V41.752ZM85.032 41.752H79.032V95.896H85.032H91.032V41.752H85.032ZM85.032 95.896V89.896H76.488V95.896V101.896H85.032V95.896ZM76.488 95.896H70.488V104.056H76.488H82.488V95.896H76.488ZM76.488 104.056V98.056H47.304V104.056V110.056H76.488V104.056ZM96.6997 104.056H90.6997V110.056H96.6997V104.056ZM96.6997 58.168V52.168H90.6997V58.168H96.6997ZM134.332 58.168H140.332V52.168H134.332V58.168ZM134.332 66.424H128.332V72.424H134.332V66.424ZM142.876 66.424H148.876V60.424H142.876V66.424ZM142.876 104.056V110.056H148.876V104.056H142.876ZM130.588 104.056H124.588V110.056H130.588V104.056ZM130.588 71.224H136.588V65.224H130.588V71.224ZM108.892 71.224V65.224H102.892V71.224H108.892ZM108.892 104.056V110.056H114.892V104.056H108.892ZM96.6997 104.056H102.7V58.168H96.6997H90.6997V104.056H96.6997ZM96.6997 58.168V64.168H134.332V58.168V52.168H96.6997V58.168ZM134.332 58.168H128.332V66.424H134.332H140.332V58.168H134.332ZM134.332 66.424V72.424H142.876V66.424V60.424H134.332V66.424ZM142.876 66.424H136.876V104.056H142.876H148.876V66.424H142.876ZM142.876 104.056V98.056H130.588V104.056V110.056H142.876V104.056ZM130.588 104.056H136.588V71.224H130.588H124.588V104.056H130.588ZM130.588 71.224V65.224H108.892V71.224V77.224H130.588V71.224ZM108.892 71.224H102.892V104.056H108.892H114.892V71.224H108.892ZM108.892 104.056V98.056H96.6997V104.056V110.056H108.892V104.056ZM167.596 104.056H161.596V110.056H167.596V104.056ZM167.596 95.896H173.596V89.896H167.596V95.896ZM159.148 95.896H153.148V101.896H159.148V95.896ZM159.148 71.224H165.148V65.224H159.148V71.224ZM150.7 71.224H144.7V77.224H150.7V71.224ZM150.7 58.168V52.168H144.7V58.168H150.7ZM159.148 58.168V64.168H165.148V58.168H159.148ZM159.148 41.752V35.752H153.148V41.752H159.148ZM171.34 41.752H177.34V35.752H171.34V41.752ZM171.34 58.168H165.34V64.168H171.34V58.168ZM196.876 58.168H202.876V52.168H196.876V58.168ZM196.876 71.224V77.224H202.876V71.224H196.876ZM171.34 71.224V65.224H165.34V71.224H171.34ZM171.34 91H165.34V97H171.34V91ZM193.132 91V97H199.132V91H193.132ZM193.132 82.744V76.744H187.132V82.744H193.132ZM205.42 82.744H211.42V76.744H205.42V82.744ZM205.42 95.896V101.896H211.42V95.896H205.42ZM196.876 95.896V89.896H190.876V95.896H196.876ZM196.876 104.056V110.056H202.876V104.056H196.876ZM167.596 104.056H173.596V95.896H167.596H161.596V104.056H167.596ZM167.596 95.896V89.896H159.148V95.896V101.896H167.596V95.896ZM159.148 95.896H165.148V71.224H159.148H153.148V95.896H159.148ZM159.148 71.224V65.224H150.7V71.224V77.224H159.148V71.224ZM150.7 71.224H156.7V58.168H150.7H144.7V71.224H150.7ZM150.7 58.168V64.168H159.148V58.168V52.168H150.7V58.168ZM159.148 58.168H165.148V41.752H159.148H153.148V58.168H159.148ZM159.148 41.752V47.752H171.34V41.752V35.752H159.148V41.752ZM171.34 41.752H165.34V58.168H171.34H177.34V41.752H171.34ZM171.34 58.168V64.168H196.876V58.168V52.168H171.34V58.168ZM196.876 58.168H190.876V71.224H196.876H202.876V58.168H196.876ZM196.876 71.224V65.224H171.34V71.224V77.224H196.876V71.224ZM171.34 71.224H165.34V91H171.34H177.34V71.224H171.34ZM171.34 91V97H193.132V91V85H171.34V91ZM193.132 91H199.132V82.744H193.132H187.132V91H193.132ZM193.132 82.744V88.744H205.42V82.744V76.744H193.132V82.744ZM205.42 82.744H199.42V95.896H205.42H211.42V82.744H205.42ZM205.42 95.896V89.896H196.876V95.896V101.896H205.42V95.896ZM196.876 95.896H190.876V104.056H196.876H202.876V95.896H196.876ZM196.876 104.056V98.056H167.596V104.056V110.056H196.876V104.056ZM217.169 104.056H211.169V110.056H217.169V104.056ZM217.169 58.168V52.168H211.169V58.168H217.169ZM229.361 58.168H235.361V52.168H229.361V58.168ZM229.361 104.056V110.056H235.361V104.056H229.361ZM217.169 54.904H211.169V60.904H217.169V54.904ZM217.169 41.752V35.752H211.169V41.752H217.169ZM229.361 41.752H235.361V35.752H229.361V41.752ZM229.361 54.904V60.904H235.361V54.904H229.361ZM217.169 104.056H223.169V58.168H217.169H211.169V104.056H217.169ZM217.169 58.168V64.168H229.361V58.168V52.168H217.169V58.168ZM229.361 58.168H223.361V104.056H229.361H235.361V58.168H229.361ZM229.361 104.056V98.056H217.169V104.056V110.056H229.361V104.056ZM217.169 54.904H223.169V41.752H217.169H211.169V54.904H217.169ZM217.169 41.752V47.752H229.361V41.752V35.752H217.169V41.752ZM229.361 41.752H223.361V54.904H229.361H235.361V41.752H229.361ZM229.361 54.904V48.904H217.169V54.904V60.904H229.361V54.904ZM255.064 104.056H249.064V110.056H255.064V104.056ZM255.064 95.896H261.064V89.896H255.064V95.896ZM246.617 95.896H240.617V101.896H246.617V95.896ZM246.617 71.224H252.617V65.224H246.617V71.224ZM238.169 71.224H232.169V77.224H238.169V71.224ZM238.169 58.168V52.168H232.169V58.168H238.169ZM246.617 58.168V64.168H252.617V58.168H246.617ZM246.617 41.752V35.752H240.617V41.752H246.617ZM258.809 41.752H264.809V35.752H258.809V41.752ZM258.809 58.168H252.809V64.168H258.809V58.168ZM284.345 58.168H290.345V52.168H284.345V58.168ZM284.345 71.224V77.224H290.345V71.224H284.345ZM258.809 71.224V65.224H252.809V71.224H258.809ZM258.809 91H252.809V97H258.809V91ZM280.6 91V97H286.6V91H280.6ZM280.6 82.744V76.744H274.6V82.744H280.6ZM292.888 82.744H298.888V76.744H292.888V82.744ZM292.888 95.896V101.896H298.888V95.896H292.888ZM284.345 95.896V89.896H278.345V95.896H284.345ZM284.345 104.056V110.056H290.345V104.056H284.345ZM255.064 104.056H261.064V95.896H255.064H249.064V104.056H255.064ZM255.064 95.896V89.896H246.617V95.896V101.896H255.064V95.896ZM246.617 95.896H252.617V71.224H246.617H240.617V95.896H246.617ZM246.617 71.224V65.224H238.169V71.224V77.224H246.617V71.224ZM238.169 71.224H244.169V58.168H238.169H232.169V71.224H238.169ZM238.169 58.168V64.168H246.617V58.168V52.168H238.169V58.168ZM246.617 58.168H252.617V41.752H246.617H240.617V58.168H246.617ZM246.617 41.752V47.752H258.809V41.752V35.752H246.617V41.752ZM258.809 41.752H252.809V58.168H258.809H264.809V41.752H258.809ZM258.809 58.168V64.168H284.345V58.168V52.168H258.809V58.168ZM284.345 58.168H278.345V71.224H284.345H290.345V58.168H284.345ZM284.345 71.224V65.224H258.809V71.224V77.224H284.345V71.224ZM258.809 71.224H252.809V91H258.809H264.809V71.224H258.809ZM258.809 91V97H280.6V91V85H258.809V91ZM280.6 91H286.6V82.744H280.6H274.6V91H280.6ZM280.6 82.744V88.744H292.888V82.744V76.744H280.6V82.744ZM292.888 82.744H286.889V95.896H292.888H298.888V82.744H292.888ZM292.888 95.896V89.896H284.345V95.896V101.896H292.888V95.896ZM284.345 95.896H278.345V104.056H284.345H290.345V95.896H284.345ZM284.345 104.056V98.056H255.064V104.056V110.056H284.345V104.056ZM302.762 104.056H296.762V110.056H302.762V104.056ZM302.762 41.752V35.752H296.762V41.752H302.762ZM314.954 41.752H320.954V35.752H314.954V41.752ZM314.954 104.056V110.056H320.954V104.056H314.954ZM302.762 104.056H308.762V41.752H302.762H296.762V104.056H302.762ZM302.762 41.752V47.752H314.954V41.752V35.752H302.762V41.752ZM314.954 41.752H308.954V104.056H314.954H320.954V41.752H314.954ZM314.954 104.056V98.056H302.762V104.056V110.056H314.954V104.056ZM333.241 104.056H327.241V110.056H333.241V104.056ZM333.241 95.896H339.241V89.896H333.241V95.896ZM324.793 95.896H318.793V101.896H324.793V95.896ZM324.793 66.424V60.424H318.793V66.424H324.793ZM333.241 66.424V72.424H339.241V66.424H333.241ZM333.241 58.168V52.168H327.241V58.168H333.241ZM362.426 58.168H368.426V52.168H362.426V58.168ZM362.426 66.424H356.426V72.424H362.426V66.424ZM370.97 66.424H376.97V60.424H370.97V66.424ZM370.97 79.384V85.384H376.97V79.384H370.97ZM358.682 79.384H352.682V85.384H358.682V79.384ZM358.682 71.224H364.682V65.224H358.682V71.224ZM336.986 71.224V65.224H330.986V71.224H336.986ZM336.986 74.488H330.986V80.488H336.986V74.488ZM353.978 74.488H359.978V68.488H353.978V74.488ZM353.978 87.64V93.64H359.978V87.64H353.978ZM336.986 87.64V81.64H330.986V87.64H336.986ZM336.986 91H330.986V97H336.986V91ZM358.682 91V97H364.682V91H358.682ZM358.682 82.648V76.648H352.682V82.648H358.682ZM370.97 82.648H376.97V76.648H370.97V82.648ZM370.97 95.8V101.8H376.97V95.8H370.97ZM362.426 95.8V89.8H356.426V95.8H362.426ZM362.426 104.056V110.056H368.426V104.056H362.426ZM333.241 104.056H339.241V95.896H333.241H327.241V104.056H333.241ZM333.241 95.896V89.896H324.793V95.896V101.896H333.241V95.896ZM324.793 95.896H330.793V66.424H324.793H318.793V95.896H324.793ZM324.793 66.424V72.424H333.241V66.424V60.424H324.793V66.424ZM333.241 66.424H339.241V58.168H333.241H327.241V66.424H333.241ZM333.241 58.168V64.168H362.426V58.168V52.168H333.241V58.168ZM362.426 58.168H356.426V66.424H362.426H368.426V58.168H362.426ZM362.426 66.424V72.424H370.97V66.424V60.424H362.426V66.424ZM370.97 66.424H364.97V79.384H370.97H376.97V66.424H370.97ZM370.97 79.384V73.384H358.682V79.384V85.384H370.97V79.384ZM358.682 79.384H364.682V71.224H358.682H352.682V79.384H358.682ZM358.682 71.224V65.224H336.986V71.224V77.224H358.682V71.224ZM336.986 71.224H330.986V74.488H336.986H342.986V71.224H336.986ZM336.986 74.488V80.488H353.978V74.488V68.488H336.986V74.488ZM353.978 74.488H347.978V87.64H353.978H359.978V74.488H353.978ZM353.978 87.64V81.64H336.986V87.64V93.64H353.978V87.64ZM336.986 87.64H330.986V91H336.986H342.986V87.64H336.986ZM336.986 91V97H358.682V91V85H336.986V91ZM358.682 91H364.682V82.648H358.682H352.682V91H358.682ZM358.682 82.648V88.648H370.97V82.648V76.648H358.682V82.648ZM370.97 82.648H364.97V95.8H370.97H376.97V82.648H370.97ZM370.97 95.8V89.8H362.426V95.8V101.8H370.97V95.8ZM362.426 95.8H356.426V104.056H362.426H368.426V95.8H362.426ZM362.426 104.056V98.056H333.241V104.056V110.056H362.426V104.056ZM391.085 104.056H385.085V110.056H391.085V104.056ZM391.085 95.896H397.085V89.896H391.085V95.896ZM382.637 95.896H376.637V101.896H382.637V95.896ZM382.637 66.424V60.424H376.637V66.424H382.637ZM391.085 66.424V72.424H397.085V66.424H391.085ZM391.085 58.168V52.168H385.085V58.168H391.085ZM416.621 58.168V64.168H422.621V58.168H416.621ZM416.621 41.752V35.752H410.621V41.752H416.621ZM428.909 41.752H434.909V35.752H428.909V41.752ZM428.909 95.896V101.896H434.909V95.896H428.909ZM420.269 95.896V89.896H414.269V95.896H420.269ZM420.269 104.056V110.056H426.269V104.056H420.269ZM394.829 91H388.829V97H394.829V91ZM416.525 91V97H422.525V91H416.525ZM416.525 71.224H422.525V65.224H416.525V71.224ZM394.829 71.224V65.224H388.829V71.224H394.829ZM391.085 104.056H397.085V95.896H391.085H385.085V104.056H391.085ZM391.085 95.896V89.896H382.637V95.896V101.896H391.085V95.896ZM382.637 95.896H388.637V66.424H382.637H376.637V95.896H382.637ZM382.637 66.424V72.424H391.085V66.424V60.424H382.637V66.424ZM391.085 66.424H397.085V58.168H391.085H385.085V66.424H391.085ZM391.085 58.168V64.168H416.621V58.168V52.168H391.085V58.168ZM416.621 58.168H422.621V41.752H416.621H410.621V58.168H416.621ZM416.621 41.752V47.752H428.909V41.752V35.752H416.621V41.752ZM428.909 41.752H422.909V95.896H428.909H434.909V41.752H428.909ZM428.909 95.896V89.896H420.269V95.896V101.896H428.909V95.896ZM420.269 95.896H414.269V104.056H420.269H426.269V95.896H420.269ZM420.269 104.056V98.056H391.085V104.056V110.056H420.269V104.056ZM394.829 91V97H416.525V91V85H394.829V91ZM416.525 91H422.525V71.224H416.525H410.525V91H416.525ZM416.525 71.224V65.224H394.829V71.224V77.224H416.525V71.224ZM394.829 71.224H388.829V91H394.829H400.829V71.224H394.829Z" fill="white" mask="url(#path-2-outside-1_4_24)"/>
</g>
<defs>
<filter id="filter0_d_4_24" x="28.856" y="35.752" width="410.053" height="82.3041" filterUnits="userSpaceOnUse" color-interpolation-filters="sRGB">
<feFlood flood-opacity="0" result="BackgroundImageFix"/>
<feColorMatrix in="SourceAlpha" type="matrix" values="0 0 0 0 0 0 0 0 0 0 0 0 0 0 0 0 0 0 127 0" result="hardAlpha"/>
<feOffset dy="4"/>
<feGaussianBlur stdDeviation="2"/>
<feComposite in2="hardAlpha" operator="out"/>
<feColorMatrix type="matrix" values="0 0 0 0 0 0 0 0 0 0 0 0 0 0 0 0 0 0 0.25 0"/>
<feBlend mode="normal" in2="BackgroundImageFix" result="effect1_dropShadow_4_24"/>
<feBlend mode="normal" in="SourceGraphic" in2="effect1_dropShadow_4_24" result="shape"/>
</filter>
</defs>
</svg>
